<?xml version="1.0" standalone="no"?><!DOCTYPE svg PUBLIC "-//W3C//DTD SVG 1.1//EN" "http://www.w3.org/Graphics/SVG/1.1/DTD/svg11.dtd"><svg t="1716171953514" class="icon" viewBox="0 0 1024 1024" version="1.1" xmlns="http://www.w3.org/2000/svg" p-id="7883" xmlns:xlink="http://www.w3.org/1999/xlink" width="200" height="200"><path d="M204.8 341.333333v341.333334c0 169.710933 137.514667 307.2 307.2 307.2s307.2-137.5232 307.2-307.2V341.333333C819.2 171.6224 681.685333 34.133333 512 34.133333S204.8 171.656533 204.8 341.333333z m-34.133333 0C170.666667 152.823467 323.447467 0 512 0c188.509867 0 341.333333 152.746667 341.333333 341.333333v341.333334c0 188.509867-152.7808 341.333333-341.333333 341.333333-188.509867 0-341.333333-152.746667-341.333333-341.333333V341.333333z" p-id="7884" fill="#ffffff"></path><path d="M187.733333 426.666667h648.533334v34.133333H187.733333zM494.933333 25.6h34.133334v341.333333h-34.133334z" p-id="7885" fill="#ffffff"></path><path d="M512 332.8m-34.133333 0a34.133333 34.133333 0 1 0 68.266666 0 34.133333 34.133333 0 1 0-68.266666 0Z" p-id="7886" fill="#ffffff"></path></svg>