<?xml version="1.0" standalone="no"?><!DOCTYPE svg PUBLIC "-//W3C//DTD SVG 1.1//EN" "http://www.w3.org/Graphics/SVG/1.1/DTD/svg11.dtd"><svg t="1715236409396" class="icon" viewBox="0 0 1024 1024" version="1.1" xmlns="http://www.w3.org/2000/svg" p-id="9521" xmlns:xlink="http://www.w3.org/1999/xlink" width="200" height="200"><path d="M300.95162432 943.72479443c-55.520501 0-93.25901001-44.607964-93.25901-110.98881401l0-671.442362c0-66.38084999 37.738509-110.98779001 93.285616-110.98779 21.22951001 0 43.632753 6.590092 66.121953 19.57175402L895.63169532 406.20865343c39.06471401 22.529109 61.195757 55.01703401 61.19575701 90.87266 0 35.81571699-22.01234 68.263733-62.01849501 91.36282401L368.05492832 923.55542842C344.55777132 937.14698143 322.18113432 943.72479443 300.95162432 943.72479443zM300.97823032 104.61985142c-34.79445699 0-38.971593 39.634696-38.971593 56.673767l0 671.442362c0 17.040095 4.177136 56.67478999 38.944987 56.67479001 11.403724 0 25.02802299-4.242627 38.965453-12.292977l526.661931-335.11129101c23.16560599-13.406335 35.933397-29.55615301 35.933397-44.92518899 0-15.408945-12.72890601-31.598672-34.967396-44.435025L338.92140032 116.31521743C325.99397333 108.87578143 312.39525732 104.61985142 300.97823032 104.61985142z" fill="#ffffff" p-id="9522"></path><path d="M570.88956632 672.92522843c-4.52198999 0-8.924253-2.240017-11.510148-6.351662-3.99089402-6.338359-2.081405-14.719236 4.25593-18.723434l7.333012-4.615111c6.35166201-3.97861399 14.731516-2.094708 18.723434 4.270257 4.00522 6.337335 2.095731 14.718213-4.25593 18.72241001l-7.333012 4.61613399C575.86181132 672.24779942 573.35573432 672.92522843 570.88956632 672.92522843z" fill="#ffffff" p-id="9523"></path><path d="M371.97316732 798.03464342c-4.520967 0-8.924253-2.240017-11.510148-6.351662-3.99089402-6.337335-2.081405-14.731516 4.269233-18.72241l152.386666-95.85923099c6.338359-3.964288 14.719236-2.094708 18.723434 4.270257 3.99089402 6.337335 2.082428 14.731516-4.269233 18.72343399l-152.386666 95.85820799C376.94541232 797.35926142 374.43933532 798.03464342 371.97316732 798.03464342z" fill="#ffffff" p-id="9524"></path></svg>