<?xml version="1.0" standalone="no"?><!DOCTYPE svg PUBLIC "-//W3C//DTD SVG 1.1//EN" "http://www.w3.org/Graphics/SVG/1.1/DTD/svg11.dtd"><svg t="1715236437011" class="icon" viewBox="0 0 1024 1024" version="1.1" xmlns="http://www.w3.org/2000/svg" p-id="9730" xmlns:xlink="http://www.w3.org/1999/xlink" width="200" height="200"><path d="M458.64625344 800.05792025c0 63.6614775-51.61300594 115.26776813-115.28119969 115.26776811l-1.38434157 0c-63.66819281 0-115.28023969-51.60629062-115.28023968-115.26776811L226.70047344 193.01317679c0-63.6614775 51.61204687-115.26776813 115.28023968-115.26776812l1.38434157 0c63.66819281 0 115.28119969 51.60629062 115.28119968 115.26776812L458.64625344 800.05792025zM407.10327969 193.01317679c0-35.19661689-28.53393375-63.72479437-63.73726594-63.72479437l-1.38434155 0c-35.20333219 0-63.73726594 28.52721844-63.73726595 63.72479437L278.24440625 800.05792025c0 35.19661689 28.53393375 63.72479437 63.73726593 63.72479436l1.38434157 0c35.20333219 0 63.73726594-28.52721844 63.73726594-63.72479436L407.10327969 193.01317679z" fill="#ffffff" p-id="9731"></path><path d="M316.90235655 296.80520618c-7.12221094 0-12.88598345-5.76377249-12.88598342-12.88598344l0-51.54393281c0-7.12221094 5.76377249-12.88598345 12.88598342-12.88598343 7.10973938 0 12.88598345 5.76377249 12.88598345 12.88598343l0 51.54393281C329.78738 291.0414337 324.01209594 296.80520618 316.90235655 296.80520618z" fill="#ffffff" p-id="9732"></path><path d="M316.90235655 335.46219649c-7.12221094 0-12.88598345-5.76281251-12.88598342-12.88598343l0-5.3359022c0-7.12221094 5.76377249-12.88598345 12.88598342-12.88598344 7.10973938 0 12.88598345 5.76377249 12.88598345 12.88598344l0 5.3359022C329.78738 329.69938399 324.01209594 335.46219649 316.90235655 335.46219649z" fill="#ffffff" p-id="9733"></path><path d="M790.66253055 800.05792025c0 63.6614775-51.60629062 115.26776813-115.28119969 115.26776811l-1.3833825 0c-63.67394906 0-115.28023969-51.60629062-115.28023968-115.26776811L558.71770961 193.01317679c0-63.6614775 51.60629062-115.26776813 115.28023969-115.26776812l1.3833825 0c63.67490812 0 115.28119969 51.60629062 115.28119969 115.26776812L790.66253055 800.05792025zM739.11859774 193.01317679c0-35.19661689-28.5281775-63.72479437-63.73726594-63.72479437l-1.3833825 0c-35.2100475 0-63.73726594 28.52721844-63.73726594 63.72479437L610.26068336 800.05792025c0 35.19661689 28.52721844 63.72479437 63.73726594 63.72479436l1.3833825 0c35.20908844 0 63.73726594-28.52721844 63.73726594-63.72479436L739.11859774 193.01317679z" fill="#ffffff" p-id="9734"></path></svg>