<?xml version="1.0" standalone="no"?><!DOCTYPE svg PUBLIC "-//W3C//DTD SVG 1.1//EN" "http://www.w3.org/Graphics/SVG/1.1/DTD/svg11.dtd"><svg t="1715236465064" class="icon" viewBox="0 0 1024 1024" version="1.1" xmlns="http://www.w3.org/2000/svg" p-id="9940" xmlns:xlink="http://www.w3.org/1999/xlink" width="200" height="200"><path d="M844.8 247.466667c0-17.066667-17.066667-34.133333-34.133333-34.133334s-34.133333 12.8-34.133334 34.133334v68.266666c-8.533333-17.066667-21.333333-29.866667-29.866666-38.4C682.666667 217.6 601.6 179.2 512 179.2c-183.466667 0-332.8 149.333333-332.8 332.8s149.333333 332.8 332.8 332.8c89.6 0 170.666667-34.133333 234.666667-98.133333 12.8-12.8 12.8-34.133333 0-46.933334s-34.133333-12.8-46.933334 0c-51.2 51.2-119.466667 76.8-187.733333 76.8-145.066667 0-264.533333-119.466667-264.533333-264.533333S366.933333 243.2 512 243.2c72.533333 0 136.533333 25.6 187.733333 76.8l38.4 38.4h-76.8c-17.066667 0-34.133333 12.8-34.133333 34.133333s12.8 34.133333 34.133333 34.133334H823.466667s4.266667 0 4.266666-4.266667c0 0 4.266667 0 4.266667-4.266667l4.266667-4.266666 4.266666-4.266667v-4.266667-157.866666z" p-id="9941" fill="#ffffff"></path></svg>