<svg width="22" height="22" viewBox="0 0 22 22" fill="none" xmlns="http://www.w3.org/2000/svg">
<g clip-path="url(#clip0_31_38230)">
<path d="M5.5 10.725C5.5 13.7119 7.92147 16.1333 10.9083 16.1333C13.8952 16.1333 16.3167 13.7119 16.3167 10.725C16.3167 7.73813 13.8952 5.31667 10.9083 5.31667C7.92147 5.31667 5.5 7.73813 5.5 10.725ZM11.0229 3.66667C10.6111 3.66667 10.3369 3.34583 10.3369 2.97917V0.641667C10.3369 0.275 10.6111 0 10.9771 0H11.0229C11.3888 0 11.709 0.320833 11.709 0.6875V3.025C11.709 3.34583 11.3888 3.66667 11.0229 3.66667ZM11.0229 22C10.6111 22 10.3369 21.6792 10.3369 21.3125V18.975C10.3369 18.6083 10.657 18.2875 11.0229 18.2875H11.0688C11.4345 18.2875 11.7546 18.6083 11.7546 18.975V21.3125C11.7088 21.6792 11.3888 22 11.0229 22ZM18.2952 10.9542C18.2952 10.5417 18.6153 10.2667 18.9812 10.2667H21.314C21.6799 10.2667 22 10.5875 22 10.9542V11C22 11.3667 21.6799 11.6875 21.314 11.6875H18.9812C18.6153 11.6417 18.2952 11.3208 18.2952 10.9542ZM0 10.9542C0 10.5417 0.3201 10.2667 0.686033 10.2667H3.01877C3.3847 10.2667 3.7048 10.5875 3.7048 10.9542V11C3.7048 11.3667 3.3847 11.6875 3.01877 11.6875H0.686033C0.3201 11.6417 0 11.3208 0 10.9542ZM15.917 5.31667C15.7897 5.19142 15.7143 5.02278 15.7058 4.84438C15.6973 4.66599 15.7563 4.49095 15.8712 4.35417L17.5175 2.70417C17.7921 2.42917 18.2037 2.42917 18.4782 2.70417V2.75C18.7526 3.025 18.7526 3.4375 18.4782 3.7125L16.8316 5.3625C16.6028 5.59167 16.1456 5.59167 15.9168 5.31667H15.917ZM2.97275 18.2875C2.6983 18.0125 2.6983 17.5542 2.92692 17.325L4.57362 15.675C4.84807 15.4 5.25965 15.4 5.53428 15.675L5.57993 15.7208C5.8542 15.9958 5.8542 16.4083 5.57993 16.6833L3.93323 18.3333C3.79692 18.4484 3.62215 18.5076 3.44399 18.4991C3.26583 18.4906 3.09749 18.415 2.97275 18.2875ZM15.871 15.6292C16.1454 15.3542 16.6027 15.3542 16.8315 15.5833L18.478 17.2333C18.7524 17.5083 18.7524 17.9208 18.478 18.1958L18.4321 18.2417C18.1579 18.5167 17.7461 18.5167 17.4717 18.2417L15.8253 16.5917C15.7105 16.4549 15.6514 16.2799 15.6598 16.1015C15.6683 15.9231 15.7437 15.7544 15.871 15.6292ZM2.92728 2.65833C3.20173 2.38333 3.65897 2.38333 3.88777 2.6125L5.53428 4.2625C5.80873 4.5375 5.80873 4.95 5.53428 5.225L5.48845 5.27083C5.21418 5.54583 4.80242 5.54583 4.52815 5.27083L2.92728 3.62083C2.69848 3.34583 2.69848 2.93333 2.92728 2.65833Z" fill="#FFB72D"/>
</g>
<defs>
<clipPath id="clip0_31_38230">
<rect width="22" height="22" fill="white"/>
</clipPath>
</defs>
</svg>
