<svg width="58" height="52" viewBox="0 0 58 52" fill="none" xmlns="http://www.w3.org/2000/svg">
<g filter="url(#filter0_d_131_93)">
<ellipse cx="29.7288" cy="32.8978" rx="23.7288" ry="4.84261" fill="#22B085" fill-opacity="0.3" shape-rendering="crispEdges"/>
<path d="M52.9576 32.8978C52.9576 33.054 52.8823 33.2606 52.6225 33.5197C52.3614 33.7801 51.95 34.0553 51.3756 34.3324C50.2291 34.8856 48.5379 35.3974 46.4076 35.8321C42.1553 36.7 36.2582 37.2404 29.7288 37.2404C23.1994 37.2404 17.3023 36.7 13.05 35.8321C10.9197 35.3974 9.22853 34.8856 8.08201 34.3324C7.50762 34.0553 7.09625 33.7801 6.83516 33.5197C6.57534 33.2606 6.5 33.054 6.5 32.8978C6.5 32.7416 6.57534 32.535 6.83516 32.2759C7.09625 32.0155 7.50762 31.7403 8.08201 31.4631C9.22853 30.9099 10.9197 30.3982 13.05 29.9634C17.3023 29.0956 23.1994 28.5552 29.7288 28.5552C36.2582 28.5552 42.1553 29.0956 46.4076 29.9634C48.5379 30.3982 50.2291 30.9099 51.3756 31.4631C51.95 31.7403 52.3614 32.0155 52.6225 32.2759C52.8823 32.535 52.9576 32.7416 52.9576 32.8978Z" stroke="url(#paint0_linear_131_93)" shape-rendering="crispEdges"/>
</g>
<path d="M47.9262 28.5716C47.9262 28.6619 47.8838 28.8035 47.6885 28.9992C47.4918 29.1964 47.1756 29.4106 46.7238 29.6297C45.8225 30.0668 44.4861 30.4741 42.7941 30.8212C39.4183 31.5137 34.732 31.9457 29.54 31.9457C24.348 31.9457 19.6617 31.5137 16.2859 30.8212C14.5939 30.4741 13.2575 30.0668 12.3562 29.6297C11.9044 29.4106 11.5882 29.1964 11.3915 28.9992C11.1962 28.8035 11.1538 28.6619 11.1538 28.5716C11.1538 28.4813 11.1962 28.3398 11.3915 28.144C11.5882 27.9468 11.9044 27.7326 12.3562 27.5135C13.2575 27.0764 14.5939 26.6691 16.2859 26.322C19.6617 25.6295 24.348 25.1975 29.54 25.1975C34.732 25.1975 39.4183 25.6295 42.7941 26.322C44.4861 26.6691 45.8225 27.0764 46.7238 27.5135C47.1756 27.7326 47.4918 27.9468 47.6885 28.144C47.8838 28.3398 47.9262 28.4813 47.9262 28.5716Z" fill="url(#paint1_linear_131_93)" fill-opacity="0.4"/>
<path d="M47.9262 28.5716C47.9262 28.6619 47.8838 28.8035 47.6885 28.9992C47.4918 29.1964 47.1756 29.4106 46.7238 29.6297C45.8225 30.0668 44.4861 30.4741 42.7941 30.8212C39.4183 31.5137 34.732 31.9457 29.54 31.9457C24.348 31.9457 19.6617 31.5137 16.2859 30.8212C14.5939 30.4741 13.2575 30.0668 12.3562 29.6297C11.9044 29.4106 11.5882 29.1964 11.3915 28.9992C11.1962 28.8035 11.1538 28.6619 11.1538 28.5716C11.1538 28.4813 11.1962 28.3398 11.3915 28.144C11.5882 27.9468 11.9044 27.7326 12.3562 27.5135C13.2575 27.0764 14.5939 26.6691 16.2859 26.322C19.6617 25.6295 24.348 25.1975 29.54 25.1975C34.732 25.1975 39.4183 25.6295 42.7941 26.322C44.4861 26.6691 45.8225 27.0764 46.7238 27.5135C47.1756 27.7326 47.4918 27.9468 47.6885 28.144C47.8838 28.3398 47.9262 28.4813 47.9262 28.5716Z" stroke="url(#paint2_linear_131_93)"/>
<path d="M47.9262 28.5716C47.9262 28.6619 47.8838 28.8035 47.6885 28.9992C47.4918 29.1964 47.1756 29.4106 46.7238 29.6297C45.8225 30.0668 44.4861 30.4741 42.7941 30.8212C39.4183 31.5137 34.732 31.9457 29.54 31.9457C24.348 31.9457 19.6617 31.5137 16.2859 30.8212C14.5939 30.4741 13.2575 30.0668 12.3562 29.6297C11.9044 29.4106 11.5882 29.1964 11.3915 28.9992C11.1962 28.8035 11.1538 28.6619 11.1538 28.5716C11.1538 28.4813 11.1962 28.3398 11.3915 28.144C11.5882 27.9468 11.9044 27.7326 12.3562 27.5135C13.2575 27.0764 14.5939 26.6691 16.2859 26.322C19.6617 25.6295 24.348 25.1975 29.54 25.1975C34.732 25.1975 39.4183 25.6295 42.7941 26.322C44.4861 26.6691 45.8225 27.0764 46.7238 27.5135C47.1756 27.7326 47.4918 27.9468 47.6885 28.144C47.8838 28.3398 47.9262 28.4813 47.9262 28.5716Z" stroke="url(#paint3_linear_131_93)" stroke-opacity="0.8"/>
<g filter="url(#filter1_ddi_131_93)">
<path d="M33.7372 12.9014C32.2336 16.0088 31.6302 22.8654 31.479 26.9007C31.4566 27.4995 31.3134 27.9762 30.7142 27.9762C30.1064 27.9762 29.2703 27.4814 29.255 26.8738C29.1242 21.6832 28.0621 19.3512 26.8819 18.3869C26.5874 18.1462 26.1684 18.1974 25.8616 18.4221C17.1413 24.8101 10.2644 24.3215 4.08688 23.1335C-2.20851 21.9229 -0.513599 18.7752 4.32902 14.4168C13.7721 6.91078 22.9731 11.7534 25.3944 13.6904C16.6777 12.2377 10.6244 14.659 8.9295 16.3539C17.784 12.6474 25.2374 15.5954 28.7582 17.7516C29.4276 18.1616 30.3663 17.7598 30.5313 16.9924C32.854 6.18808 43.6513 3.9688 45.4912 3.27883C38.4694 3.27883 32.6583 9.08995 32.4162 9.08995C32.174 9.08995 34.5954 1.58392 41.1329 0.373263C47.6704 -0.837391 54.4501 1.09966 54.6922 3.27883C54.9343 5.45801 51.7866 7.63719 47.1862 10.7849C42.015 13.4971 38.2697 13.4666 34.84 12.4658C34.4071 12.3395 33.9336 12.4954 33.7372 12.9014Z" fill="#4DFFAA"/>
<path d="M33.7372 12.9014C32.2336 16.0088 31.6302 22.8654 31.479 26.9007C31.4566 27.4995 31.3134 27.9762 30.7142 27.9762C30.1064 27.9762 29.2703 27.4814 29.255 26.8738C29.1242 21.6832 28.0621 19.3512 26.8819 18.3869C26.5874 18.1462 26.1684 18.1974 25.8616 18.4221C17.1413 24.8101 10.2644 24.3215 4.08688 23.1335C-2.20851 21.9229 -0.513599 18.7752 4.32902 14.4168C13.7721 6.91078 22.9731 11.7534 25.3944 13.6904C16.6777 12.2377 10.6244 14.659 8.9295 16.3539C17.784 12.6474 25.2374 15.5954 28.7582 17.7516C29.4276 18.1616 30.3663 17.7598 30.5313 16.9924C32.854 6.18808 43.6513 3.9688 45.4912 3.27883C38.4694 3.27883 32.6583 9.08995 32.4162 9.08995C32.174 9.08995 34.5954 1.58392 41.1329 0.373263C47.6704 -0.837391 54.4501 1.09966 54.6922 3.27883C54.9343 5.45801 51.7866 7.63719 47.1862 10.7849C42.015 13.4971 38.2697 13.4666 34.84 12.4658C34.4071 12.3395 33.9336 12.4954 33.7372 12.9014Z" fill="url(#paint4_linear_131_93)" fill-opacity="0.5"/>
<path d="M33.7372 12.9014C32.2336 16.0088 31.6302 22.8654 31.479 26.9007C31.4566 27.4995 31.3134 27.9762 30.7142 27.9762C30.1064 27.9762 29.2703 27.4814 29.255 26.8738C29.1242 21.6832 28.0621 19.3512 26.8819 18.3869C26.5874 18.1462 26.1684 18.1974 25.8616 18.4221C17.1413 24.8101 10.2644 24.3215 4.08688 23.1335C-2.20851 21.9229 -0.513599 18.7752 4.32902 14.4168C13.7721 6.91078 22.9731 11.7534 25.3944 13.6904C16.6777 12.2377 10.6244 14.659 8.9295 16.3539C17.784 12.6474 25.2374 15.5954 28.7582 17.7516C29.4276 18.1616 30.3663 17.7598 30.5313 16.9924C32.854 6.18808 43.6513 3.9688 45.4912 3.27883C38.4694 3.27883 32.6583 9.08995 32.4162 9.08995C32.174 9.08995 34.5954 1.58392 41.1329 0.373263C47.6704 -0.837391 54.4501 1.09966 54.6922 3.27883C54.9343 5.45801 51.7866 7.63719 47.1862 10.7849C42.015 13.4971 38.2697 13.4666 34.84 12.4658C34.4071 12.3395 33.9336 12.4954 33.7372 12.9014Z" fill="url(#paint5_linear_131_93)" fill-opacity="0.3"/>
<path d="M17.4679 10.7106C20.6383 11.1418 23.1843 12.4117 24.61 13.367C20.5805 12.7946 17.1469 13.0455 14.4847 13.6467C11.6525 14.2862 9.67351 15.327 8.78808 16.2125L9.00673 16.5384C17.7812 12.8653 25.1654 15.7858 28.6537 17.9221C29.4406 18.4041 30.5329 17.9368 30.7268 17.0344C32.7915 7.43033 41.6246 4.69681 44.7477 3.7303C45.0955 3.62267 45.3725 3.53695 45.5615 3.4661L45.4912 3.07883C41.9274 3.07883 38.6817 4.5524 36.3065 6.01406C35.1172 6.74592 34.142 7.47739 33.4498 8.02512C33.1912 8.22973 32.9711 8.40943 32.7955 8.55292C32.7625 8.57983 32.7311 8.60547 32.7013 8.62976C32.7576 8.45186 32.8372 8.22995 32.9418 7.97383C33.2322 7.26283 33.7099 6.2996 34.397 5.2988C35.7729 3.29477 37.9725 1.16192 41.1693 0.569919C44.4096 -0.030142 47.7107 0.150313 50.227 0.749422C51.4858 1.04913 52.5387 1.4514 53.2869 1.90615C54.0459 2.36752 54.4436 2.85292 54.4934 3.30092C54.6026 4.28384 53.9502 5.31198 52.6206 6.52067C51.3033 7.71828 49.383 9.03941 47.0829 10.6132C41.9623 13.2963 38.273 13.2592 34.896 12.2738C34.3899 12.1261 33.8048 12.3025 33.5572 12.8143C32.7904 14.3988 32.2607 16.9176 31.9028 19.5259C31.544 22.141 31.3549 24.8708 31.2792 26.8932C31.2682 27.1869 31.2274 27.4131 31.1403 27.562C31.0991 27.6323 31.049 27.6829 30.9867 27.7172C30.9238 27.7519 30.8372 27.7762 30.7142 27.7762C30.4576 27.7762 30.1358 27.669 29.8766 27.4887C29.6136 27.3056 29.4603 27.0808 29.4549 26.8688C29.3239 21.6702 28.2618 19.2562 27.0084 18.232C26.6221 17.9163 26.0989 18.0003 25.7434 18.2608C21.4069 21.4374 17.5377 22.8983 13.9915 23.4209C10.4431 23.9439 7.2054 23.5296 4.12465 22.9371C2.56169 22.6366 1.52667 22.2207 0.914648 21.719C0.611397 21.4704 0.41531 21.2035 0.306807 20.921C0.19839 20.6387 0.172875 20.329 0.228582 19.9878C0.341249 19.2977 0.78425 18.4907 1.51909 17.5722C2.24983 16.6588 3.253 15.6546 4.45825 14.5696C9.13163 10.8569 13.7349 10.203 17.4679 10.7106Z" stroke="url(#paint6_linear_131_93)" stroke-width="0.4"/>
<path d="M17.4679 10.7106C20.6383 11.1418 23.1843 12.4117 24.61 13.367C20.5805 12.7946 17.1469 13.0455 14.4847 13.6467C11.6525 14.2862 9.67351 15.327 8.78808 16.2125L9.00673 16.5384C17.7812 12.8653 25.1654 15.7858 28.6537 17.9221C29.4406 18.4041 30.5329 17.9368 30.7268 17.0344C32.7915 7.43033 41.6246 4.69681 44.7477 3.7303C45.0955 3.62267 45.3725 3.53695 45.5615 3.4661L45.4912 3.07883C41.9274 3.07883 38.6817 4.5524 36.3065 6.01406C35.1172 6.74592 34.142 7.47739 33.4498 8.02512C33.1912 8.22973 32.9711 8.40943 32.7955 8.55292C32.7625 8.57983 32.7311 8.60547 32.7013 8.62976C32.7576 8.45186 32.8372 8.22995 32.9418 7.97383C33.2322 7.26283 33.7099 6.2996 34.397 5.2988C35.7729 3.29477 37.9725 1.16192 41.1693 0.569919C44.4096 -0.030142 47.7107 0.150313 50.227 0.749422C51.4858 1.04913 52.5387 1.4514 53.2869 1.90615C54.0459 2.36752 54.4436 2.85292 54.4934 3.30092C54.6026 4.28384 53.9502 5.31198 52.6206 6.52067C51.3033 7.71828 49.383 9.03941 47.0829 10.6132C41.9623 13.2963 38.273 13.2592 34.896 12.2738C34.3899 12.1261 33.8048 12.3025 33.5572 12.8143C32.7904 14.3988 32.2607 16.9176 31.9028 19.5259C31.544 22.141 31.3549 24.8708 31.2792 26.8932C31.2682 27.1869 31.2274 27.4131 31.1403 27.562C31.0991 27.6323 31.049 27.6829 30.9867 27.7172C30.9238 27.7519 30.8372 27.7762 30.7142 27.7762C30.4576 27.7762 30.1358 27.669 29.8766 27.4887C29.6136 27.3056 29.4603 27.0808 29.4549 26.8688C29.3239 21.6702 28.2618 19.2562 27.0084 18.232C26.6221 17.9163 26.0989 18.0003 25.7434 18.2608C21.4069 21.4374 17.5377 22.8983 13.9915 23.4209C10.4431 23.9439 7.2054 23.5296 4.12465 22.9371C2.56169 22.6366 1.52667 22.2207 0.914648 21.719C0.611397 21.4704 0.41531 21.2035 0.306807 20.921C0.19839 20.6387 0.172875 20.329 0.228582 19.9878C0.341249 19.2977 0.78425 18.4907 1.51909 17.5722C2.24983 16.6588 3.253 15.6546 4.45825 14.5696C9.13163 10.8569 13.7349 10.203 17.4679 10.7106Z" stroke="url(#paint7_linear_131_93)" stroke-width="0.4"/>
</g>
<defs>
<filter id="filter0_d_131_93" x="2" y="28.0552" width="55.4575" height="23.6852" filterUnits="userSpaceOnUse" color-interpolation-filters="sRGB">
<feFlood flood-opacity="0" result="BackgroundImageFix"/>
<feColorMatrix in="SourceAlpha" type="matrix" values="0 0 0 0 0 0 0 0 0 0 0 0 0 0 0 0 0 0 127 0" result="hardAlpha"/>
<feOffset dy="10"/>
<feGaussianBlur stdDeviation="2"/>
<feComposite in2="hardAlpha" operator="out"/>
<feColorMatrix type="matrix" values="0 0 0 0 0 0 0 0 0 0.129167 0 0 0 0 0.0901476 0 0 0 0.2 0"/>
<feBlend mode="normal" in2="BackgroundImageFix" result="effect1_dropShadow_131_93"/>
<feBlend mode="normal" in="SourceGraphic" in2="effect1_dropShadow_131_93" result="shape"/>
</filter>
<filter id="filter1_ddi_131_93" x="0" y="0" width="56.7051" height="29.9762" filterUnits="userSpaceOnUse" color-interpolation-filters="sRGB">
<feFlood flood-opacity="0" result="BackgroundImageFix"/>
<feColorMatrix in="SourceAlpha" type="matrix" values="0 0 0 0 0 0 0 0 0 0 0 0 0 0 0 0 0 0 127 0" result="hardAlpha"/>
<feOffset dx="2" dy="2"/>
<feComposite in2="hardAlpha" operator="out"/>
<feColorMatrix type="matrix" values="0 0 0 0 0 0 0 0 0 0.208333 0 0 0 0 0.145399 0 0 0 1 0"/>
<feBlend mode="normal" in2="BackgroundImageFix" result="effect1_dropShadow_131_93"/>
<feColorMatrix in="SourceAlpha" type="matrix" values="0 0 0 0 0 0 0 0 0 0 0 0 0 0 0 0 0 0 127 0" result="hardAlpha"/>
<feOffset dx="1" dy="1"/>
<feComposite in2="hardAlpha" operator="out"/>
<feColorMatrix type="matrix" values="0 0 0 0 0 0 0 0 0 0.3625 0 0 0 0 0.254335 0 0 0 1 0"/>
<feBlend mode="normal" in2="effect1_dropShadow_131_93" result="effect2_dropShadow_131_93"/>
<feBlend mode="normal" in="SourceGraphic" in2="effect2_dropShadow_131_93" result="shape"/>
<feColorMatrix in="SourceAlpha" type="matrix" values="0 0 0 0 0 0 0 0 0 0 0 0 0 0 0 0 0 0 127 0" result="hardAlpha"/>
<feOffset dx="1" dy="1"/>
<feGaussianBlur stdDeviation="2"/>
<feComposite in2="hardAlpha" operator="arithmetic" k2="-1" k3="1"/>
<feColorMatrix type="matrix" values="0 0 0 0 0.183333 0 0 0 0 1 0 0 0 0 0.755 0 0 0 0.5 0"/>
<feBlend mode="normal" in2="shape" result="effect3_innerShadow_131_93"/>
</filter>
<linearGradient id="paint0_linear_131_93" x1="29.7288" y1="28.0552" x2="29.7288" y2="37.7404" gradientUnits="userSpaceOnUse">
<stop stop-color="#0F5641" stop-opacity="0.2"/>
<stop offset="1" stop-color="#22B085" stop-opacity="0.8"/>
</linearGradient>
<linearGradient id="paint1_linear_131_93" x1="29.54" y1="24.6975" x2="29.54" y2="32.4457" gradientUnits="userSpaceOnUse">
<stop stop-color="#026C4C" stop-opacity="0.4"/>
<stop offset="1" stop-color="#22B085"/>
</linearGradient>
<linearGradient id="paint2_linear_131_93" x1="29.54" y1="24.6975" x2="29.54" y2="32.4457" gradientUnits="userSpaceOnUse">
<stop stop-color="#0F5641" stop-opacity="0.13"/>
<stop offset="1" stop-color="#22B085" stop-opacity="0.5"/>
</linearGradient>
<linearGradient id="paint3_linear_131_93" x1="29.54" y1="26.2894" x2="29.54" y2="32.4457" gradientUnits="userSpaceOnUse">
<stop stop-color="#4DFFAA" stop-opacity="0"/>
<stop offset="1" stop-color="#4DFFAA"/>
</linearGradient>
<linearGradient id="paint4_linear_131_93" x1="43.0993" y1="-7.18738e-08" x2="54.2373" y2="5.08474" gradientUnits="userSpaceOnUse">
<stop stop-color="white" stop-opacity="0"/>
<stop offset="1" stop-color="white"/>
</linearGradient>
<linearGradient id="paint5_linear_131_93" x1="10.8959" y1="10.8959" x2="2.66344" y2="22.5182" gradientUnits="userSpaceOnUse">
<stop stop-color="white" stop-opacity="0"/>
<stop offset="1" stop-color="white"/>
</linearGradient>
<linearGradient id="paint6_linear_131_93" x1="0.726393" y1="21.3075" x2="6.77966" y2="18.4019" gradientUnits="userSpaceOnUse">
<stop stop-color="white"/>
<stop offset="1" stop-color="white" stop-opacity="0"/>
</linearGradient>
<linearGradient id="paint7_linear_131_93" x1="46.247" y1="2.90557" x2="54.7215" y2="3.1477" gradientUnits="userSpaceOnUse">
<stop stop-color="white" stop-opacity="0"/>
<stop offset="1" stop-color="white"/>
</linearGradient>
</defs>
</svg>
