<svg width="119" height="119" viewBox="0 0 119 119" fill="none" xmlns="http://www.w3.org/2000/svg">
<path d="M118.354 59.3542C118.354 91.939 91.9393 118.354 59.3545 118.354C26.7697 118.354 0.354492 91.939 0.354492 59.3542C0.354492 26.7694 26.7697 0.354248 59.3545 0.354248C91.9393 0.354248 118.354 26.7694 118.354 59.3542ZM6.25449 59.3542C6.25449 88.6806 30.0282 112.454 59.3545 112.454C88.6808 112.454 112.454 88.6806 112.454 59.3542C112.454 30.0279 88.6808 6.25425 59.3545 6.25425C30.0282 6.25425 6.25449 30.0279 6.25449 59.3542Z" fill="#1AD9A0" fill-opacity="0.05"/>
<circle cx="59.3545" cy="59.3542" r="55.5" transform="rotate(90 59.3545 59.3542)" stroke="url(#paint0_linear_24_42)" stroke-opacity="0.8"/>
<circle cx="59.5" cy="59.5" r="40.5" transform="rotate(90 59.5 59.5)" fill="url(#paint1_radial_24_42)" fill-opacity="0.2"/>
<path d="M62.5442 105.902C61.8725 105.945 61.197 105.975 60.5178 105.989L60.5071 105.489C60.1723 105.496 59.8366 105.5 59.5 105.5C59.1634 105.5 58.8277 105.496 58.4929 105.489L58.4822 105.989C57.803 105.975 57.1275 105.945 56.4558 105.902L56.4881 105.403C55.8178 105.36 55.1514 105.302 54.4893 105.23L54.4355 105.727C53.7607 105.654 53.0904 105.567 52.4246 105.465L52.5001 104.971C51.8359 104.869 51.1765 104.754 50.522 104.624L50.425 105.115C49.7591 104.983 49.0984 104.837 48.4431 104.677L48.5616 104.192C47.9097 104.033 47.2632 103.86 46.6225 103.673L46.4828 104.153C45.8317 103.964 45.1865 103.761 44.5476 103.544L44.7083 103.07C44.0734 102.855 43.4447 102.626 42.8225 102.384L42.6412 102.85C42.0097 102.604 41.3849 102.345 40.7672 102.073L40.9688 101.615C40.3556 101.345 39.7494 101.062 39.1506 100.766L38.9291 101.214C38.3219 100.914 37.7222 100.601 37.1304 100.276L37.3712 99.8375C36.7843 99.5148 36.2051 99.1797 35.6341 98.8325L35.3743 99.2597C34.7957 98.9079 34.2255 98.5438 33.6639 98.1678L33.942 97.7523C33.3855 97.3797 32.8376 96.9954 32.2987 96.5995L32.0027 97.0025C31.4572 96.6019 30.9208 96.1896 30.3938 95.7662L30.707 95.3764C30.1852 94.9571 29.6728 94.5266 29.17 94.0854L28.8402 94.4612C28.3317 94.0149 27.8331 93.5577 27.3447 93.09L27.6905 92.7289C27.2071 92.2661 26.7339 91.7929 26.2711 91.3095L25.91 91.6553C25.4423 91.1669 24.9851 90.6683 24.5388 90.1598L24.9146 89.83C24.4734 89.3272 24.0429 88.8148 23.6236 88.293L23.2338 88.6062C22.8104 88.0792 22.3981 87.5428 21.9975 86.9973L22.4005 86.7013C22.0046 86.1624 21.6203 85.6145 21.2477 85.058L20.8322 85.3361C20.4562 84.7745 20.0921 84.2043 19.7403 83.6257L20.1675 83.3659C19.8203 82.7949 19.4852 82.2157 19.1625 81.6288L18.7243 81.8696C18.3989 81.2778 18.0861 80.6781 17.7861 80.0709L18.2343 79.8494C17.9385 79.2506 17.6552 78.6444 17.385 78.0312L16.9275 78.2328C16.6553 77.6151 16.3961 76.9903 16.1503 76.3588L16.6163 76.1775C16.3742 75.5553 16.1452 74.9266 15.9297 74.2917L15.4563 74.4524C15.2394 73.8135 15.0361 73.1683 14.8466 72.5172L15.3267 72.3775C15.1402 71.7368 14.9673 71.0903 14.8083 70.4384L14.3226 70.5569C14.1627 69.9016 14.0168 69.2409 13.8851 68.575L14.3756 68.478C14.2461 67.8235 14.1305 67.1641 14.0291 66.4999L13.5349 66.5754C13.4332 65.9096 13.3457 65.2393 13.2726 64.5645L13.7697 64.5107C13.698 63.8486 13.6403 63.1822 13.597 62.5119L13.0981 62.5442C13.0547 61.8725 13.0255 61.197 13.0109 60.5178L13.5108 60.5071C13.5036 60.1723 13.5 59.8366 13.5 59.5C13.5 59.1634 13.5036 58.8277 13.5108 58.4929L13.0109 58.4822C13.0255 57.803 13.0547 57.1275 13.0981 56.4558L13.597 56.4881C13.6403 55.8178 13.698 55.1514 13.7697 54.4893L13.2726 54.4355C13.3457 53.7607 13.4332 53.0903 13.5349 52.4246L14.0291 52.5001C14.1305 51.8359 14.2461 51.1765 14.3756 50.522L13.8851 50.425C14.0168 49.7591 14.1627 49.0984 14.3226 48.4431L14.8083 48.5616C14.9673 47.9097 15.1402 47.2632 15.3267 46.6225L14.8466 46.4828C15.0361 45.8317 15.2394 45.1865 15.4563 44.5476L15.9297 44.7083C16.1452 44.0734 16.3742 43.4447 16.6163 42.8225L16.1503 42.6412C16.3961 42.0097 16.6553 41.3849 16.9275 40.7672L17.385 40.9688C17.6552 40.3556 17.9385 39.7494 18.2343 39.1506L17.7861 38.9291C18.0861 38.3219 18.3989 37.7222 18.7243 37.1304L19.1625 37.3712C19.4852 36.7843 19.8203 36.2051 20.1675 35.6341L19.7403 35.3743C20.0921 34.7957 20.4562 34.2255 20.8322 33.6639L21.2477 33.942C21.6203 33.3855 22.0046 32.8376 22.4005 32.2987L21.9975 32.0027C22.3981 31.4572 22.8104 30.9208 23.2338 30.3938L23.6236 30.707C24.0429 30.1852 24.4734 29.6728 24.9146 29.17L24.5388 28.8402C24.9851 28.3317 25.4423 27.8331 25.91 27.3447L26.2711 27.6905C26.7339 27.2071 27.2071 26.7339 27.6905 26.2711L27.3447 25.91C27.8331 25.4423 28.3317 24.9851 28.8402 24.5388L29.17 24.9146C29.6728 24.4734 30.1852 24.0429 30.707 23.6236L30.3938 23.2338C30.9208 22.8103 31.4572 22.3981 32.0027 21.9975L32.2987 22.4005C32.8376 22.0046 33.3856 21.6202 33.942 21.2477L33.6639 20.8322C34.2255 20.4562 34.7957 20.0921 35.3743 19.7403L35.6341 20.1675C36.2051 19.8203 36.7843 19.4852 37.3712 19.1625L37.1304 18.7243C37.7222 18.3989 38.3219 18.0861 38.9291 17.7861L39.1506 18.2343C39.7494 17.9385 40.3556 17.6552 40.9688 17.385L40.7672 16.9275C41.3849 16.6553 42.0097 16.3961 42.6412 16.1503L42.8225 16.6163C43.4447 16.3742 44.0734 16.1452 44.7083 15.9297L44.5476 15.4562C45.1865 15.2394 45.8317 15.0361 46.4828 14.8466L46.6225 15.3267C47.2632 15.1402 47.9097 14.9673 48.5616 14.8083L48.4431 14.3226C49.0984 14.1627 49.7591 14.0168 50.425 13.8851L50.522 14.3756C51.1765 14.2461 51.8359 14.1305 52.5001 14.0291L52.4246 13.5349C53.0904 13.4332 53.7607 13.3457 54.4355 13.2726L54.4893 13.7697C55.1514 13.698 55.8178 13.6403 56.4881 13.597L56.4558 13.098C57.1275 13.0546 57.803 13.0255 58.4822 13.0109L58.4929 13.5108C58.8277 13.5036 59.1634 13.5 59.5 13.5C59.8366 13.5 60.1723 13.5036 60.5071 13.5108L60.5178 13.0109C61.197 13.0255 61.8725 13.0546 62.5442 13.0981L62.5119 13.597C63.1822 13.6403 63.8486 13.698 64.5107 13.7697L64.5645 13.2726C65.2393 13.3457 65.9096 13.4332 66.5754 13.5349L66.4999 14.0291C67.1641 14.1305 67.8235 14.2461 68.478 14.3756L68.575 13.8851C69.2409 14.0168 69.9016 14.1627 70.5569 14.3226L70.4384 14.8083C71.0903 14.9673 71.7368 15.1402 72.3775 15.3267L72.5172 14.8466C73.1683 15.0361 73.8135 15.2394 74.4524 15.4562L74.2917 15.9297C74.9266 16.1452 75.5553 16.3742 76.1775 16.6163L76.3588 16.1503C76.9903 16.3961 77.6151 16.6553 78.2328 16.9275L78.0312 17.385C78.6444 17.6552 79.2506 17.9385 79.8494 18.2343L80.0709 17.7861C80.6781 18.0861 81.2778 18.3989 81.8696 18.7243L81.6288 19.1625C82.2157 19.4852 82.7949 19.8203 83.3659 20.1675L83.6257 19.7403C84.2043 20.0921 84.7745 20.4562 85.3361 20.8322L85.058 21.2477C85.6145 21.6202 86.1624 22.0046 86.7013 22.4005L86.9973 21.9975C87.5428 22.3981 88.0792 22.8104 88.6062 23.2338L88.293 23.6236C88.8148 24.0429 89.3272 24.4734 89.83 24.9146L90.1598 24.5388C90.6683 24.9851 91.1669 25.4423 91.6553 25.91L91.3095 26.2711C91.7929 26.7339 92.2661 27.2071 92.7289 27.6905L93.09 27.3447C93.5577 27.8331 94.0149 28.3317 94.4612 28.8402L94.0854 29.17C94.5266 29.6728 94.9571 30.1852 95.3764 30.707L95.7662 30.3938C96.1897 30.9208 96.6019 31.4572 97.0025 32.0027L96.5995 32.2987C96.9954 32.8376 97.3798 33.3855 97.7523 33.942L98.1678 33.6639C98.5438 34.2255 98.9079 34.7957 99.2597 35.3743L98.8325 35.6341C99.1797 36.2051 99.5148 36.7843 99.8375 37.3712L100.276 37.1304C100.601 37.7222 100.914 38.3219 101.214 38.9291L100.766 39.1506C101.062 39.7494 101.345 40.3556 101.615 40.9688L102.073 40.7672C102.345 41.3849 102.604 42.0097 102.85 42.6412L102.384 42.8225C102.626 43.4447 102.855 44.0734 103.07 44.7083L103.544 44.5476C103.761 45.1865 103.964 45.8317 104.153 46.4828L103.673 46.6225C103.86 47.2632 104.033 47.9097 104.192 48.5616L104.677 48.4431C104.837 49.0984 104.983 49.7591 105.115 50.425L104.624 50.522C104.754 51.1765 104.869 51.8359 104.971 52.5001L105.465 52.4246C105.567 53.0904 105.654 53.7607 105.727 54.4355L105.23 54.4893C105.302 55.1514 105.36 55.8178 105.403 56.4881L105.902 56.4558C105.945 57.1275 105.974 57.803 105.989 58.4822L105.489 58.4929C105.496 58.8277 105.5 59.1634 105.5 59.5C105.5 59.8366 105.496 60.1723 105.489 60.5071L105.989 60.5178C105.974 61.197 105.945 61.8725 105.902 62.5442L105.403 62.5119C105.36 63.1822 105.302 63.8486 105.23 64.5107L105.727 64.5645C105.654 65.2393 105.567 65.9096 105.465 66.5754L104.971 66.4999C104.869 67.1641 104.754 67.8235 104.624 68.478L105.115 68.575C104.983 69.2409 104.837 69.9016 104.677 70.5569L104.192 70.4384C104.033 71.0903 103.86 71.7368 103.673 72.3775L104.153 72.5172C103.964 73.1683 103.761 73.8135 103.544 74.4524L103.07 74.2917C102.855 74.9266 102.626 75.5553 102.384 76.1775L102.85 76.3588C102.604 76.9903 102.345 77.6151 102.073 78.2328L101.615 78.0312C101.345 78.6444 101.062 79.2506 100.766 79.8494L101.214 80.0709C100.914 80.6781 100.601 81.2778 100.276 81.8696L99.8375 81.6288C99.5148 82.2157 99.1797 82.7949 98.8325 83.3659L99.2597 83.6257C98.9079 84.2043 98.5438 84.7745 98.1678 85.3361L97.7523 85.058C97.3797 85.6145 96.9954 86.1624 96.5995 86.7013L97.0025 86.9973C96.6019 87.5428 96.1896 88.0792 95.7662 88.6062L95.3764 88.293C94.9571 88.8148 94.5266 89.3272 94.0854 89.83L94.4612 90.1598C94.0149 90.6683 93.5577 91.1669 93.09 91.6553L92.7289 91.3095C92.2661 91.7929 91.7929 92.2661 91.3095 92.7289L91.6553 93.09C91.1669 93.5578 90.6683 94.0149 90.1598 94.4612L89.83 94.0854C89.3272 94.5266 88.8148 94.9571 88.293 95.3764L88.6062 95.7662C88.0792 96.1897 87.5428 96.6019 86.9973 97.0025L86.7013 96.5995C86.1624 96.9954 85.6145 97.3798 85.058 97.7523L85.3361 98.1678C84.7745 98.5438 84.2043 98.9079 83.6257 99.2597L83.3659 98.8325C82.7949 99.1797 82.2157 99.5148 81.6288 99.8375L81.8696 100.276C81.2778 100.601 80.6781 100.914 80.0709 101.214L79.8494 100.766C79.2506 101.062 78.6444 101.345 78.0312 101.615L78.2328 102.073C77.6151 102.345 76.9903 102.604 76.3588 102.85L76.1775 102.384C75.5553 102.626 74.9266 102.855 74.2917 103.07L74.4524 103.544C73.8135 103.761 73.1683 103.964 72.5172 104.153L72.3775 103.673C71.7368 103.86 71.0903 104.033 70.4384 104.192L70.5569 104.677C69.9016 104.837 69.2409 104.983 68.575 105.115L68.478 104.624C67.8235 104.754 67.1641 104.869 66.4999 104.971L66.5754 105.465C65.9096 105.567 65.2393 105.654 64.5645 105.727L64.5107 105.23C63.8486 105.302 63.1822 105.36 62.5119 105.403L62.5442 105.902Z" stroke="#1AD9A0" stroke-opacity="0.4" stroke-dasharray="2 2"/>
<defs>
<linearGradient id="paint0_linear_24_42" x1="103.992" y1="23.2383" x2="22.8328" y2="104.398" gradientUnits="userSpaceOnUse">
<stop offset="0.00147785" stop-color="#FFD463"/>
<stop offset="0.270833" stop-opacity="0"/>
<stop offset="0.765625" stop-opacity="0"/>
<stop offset="1" stop-color="#1AD9A0"/>
</linearGradient>
<radialGradient id="paint1_radial_24_42" cx="0" cy="0" r="1" gradientUnits="userSpaceOnUse" gradientTransform="translate(59.5 59.5) scale(40.5)">
<stop stop-color="#1AD9A0"/>
<stop offset="1" stop-color="#1AD9A0" stop-opacity="0.2"/>
</radialGradient>
</defs>
</svg>
