<svg width="35" height="36" viewBox="0 0 35 36" fill="none" xmlns="http://www.w3.org/2000/svg">
<path d="M17.2134 5.05034L29.836 15.1578C29.9933 15.2837 30.1035 15.4598 30.152 15.6631C30.2005 15.8665 30.1851 16.0875 30.1078 16.2974C30.0306 16.5072 29.8951 16.696 29.719 16.839C29.543 16.982 29.3347 17.0726 29.1214 17.0989L27.8721 17.251V26.5843C27.8721 26.9345 27.8036 27.2897 27.6706 27.6295C27.5376 27.9694 27.3426 28.2873 27.0968 28.5651C26.8511 28.8429 26.5593 29.0751 26.2382 29.2486C25.917 29.422 25.5729 29.5333 25.2253 29.5759L6.69775 31.8508C6.35017 31.8935 6.00599 31.8668 5.68487 31.7722C5.36375 31.6776 5.07197 31.517 4.82619 31.2996C4.58041 31.0821 4.38545 30.8121 4.25244 30.5049C4.11942 30.1977 4.05096 29.8593 4.05096 29.5092V20.1758L2.803 20.3291C2.58996 20.3548 2.38199 20.3153 2.20626 20.2155C2.03054 20.1157 1.89524 19.9604 1.81804 19.7698C1.74085 19.5793 1.72535 19.3623 1.77358 19.1473C1.82181 18.9323 1.93152 18.7293 2.08837 18.5648L14.7096 5.35777C15.0513 5.00025 15.498 4.77034 15.9615 4.71343C16.4251 4.65651 16.8717 4.77672 17.2134 5.05034ZM9.69127 21.2899C9.44317 21.5704 9.3038 21.9266 9.3038 22.2802C9.3038 22.6337 9.44317 22.9557 9.69127 23.1753C11.3199 24.6161 13.5287 25.2667 15.8318 24.9839C18.135 24.7011 20.3438 23.5081 21.9724 21.6673C22.2134 21.3863 22.3468 21.0331 22.3438 20.6839C22.3408 20.3346 22.2016 20.0173 21.9563 19.8002C21.7109 19.5832 21.379 19.4837 21.032 19.5232C20.685 19.5628 20.3507 19.7383 20.1011 20.0118C18.9689 21.2913 17.4335 22.1205 15.8325 22.317C14.2315 22.5136 12.6961 22.0615 11.5639 21.06C11.441 20.9511 11.295 20.8707 11.1344 20.8233C10.9737 20.776 10.8015 20.7626 10.6276 20.7839C10.4537 20.8053 10.2814 20.861 10.1208 20.9478C9.96013 21.0346 9.81418 21.1509 9.69127 21.2899Z" fill="#BC8800"/>
<path d="M17.2134 5.05034L29.836 15.1578C29.9933 15.2837 30.1035 15.4598 30.152 15.6631C30.2005 15.8665 30.1851 16.0875 30.1078 16.2974C30.0306 16.5072 29.8951 16.696 29.719 16.839C29.543 16.982 29.3347 17.0726 29.1214 17.0989L27.8721 17.251V26.5843C27.8721 26.9345 27.8036 27.2897 27.6706 27.6295C27.5376 27.9694 27.3426 28.2873 27.0968 28.5651C26.8511 28.8429 26.5593 29.0751 26.2382 29.2486C25.917 29.422 25.5729 29.5333 25.2253 29.5759L6.69775 31.8508C6.35017 31.8935 6.00599 31.8668 5.68487 31.7722C5.36375 31.6776 5.07197 31.517 4.82619 31.2996C4.58041 31.0821 4.38545 30.8121 4.25244 30.5049C4.11942 30.1977 4.05096 29.8593 4.05096 29.5092V20.1758L2.803 20.3291C2.58996 20.3548 2.38199 20.3153 2.20626 20.2155C2.03054 20.1157 1.89524 19.9604 1.81804 19.7698C1.74085 19.5793 1.72535 19.3623 1.77358 19.1473C1.82181 18.9323 1.93152 18.7293 2.08837 18.5648L14.7096 5.35777C15.0513 5.00025 15.498 4.77034 15.9615 4.71343C16.4251 4.65651 16.8717 4.77672 17.2134 5.05034ZM9.69127 21.2899C9.44317 21.5704 9.3038 21.9266 9.3038 22.2802C9.3038 22.6337 9.44317 22.9557 9.69127 23.1753C11.3199 24.6161 13.5287 25.2667 15.8318 24.9839C18.135 24.7011 20.3438 23.5081 21.9724 21.6673C22.2134 21.3863 22.3468 21.0331 22.3438 20.6839C22.3408 20.3346 22.2016 20.0173 21.9563 19.8002C21.7109 19.5832 21.379 19.4837 21.032 19.5232C20.685 19.5628 20.3507 19.7383 20.1011 20.0118C18.9689 21.2913 17.4335 22.1205 15.8325 22.317C14.2315 22.5136 12.6961 22.0615 11.5639 21.06C11.441 20.9511 11.295 20.8707 11.1344 20.8233C10.9737 20.776 10.8015 20.7626 10.6276 20.7839C10.4537 20.8053 10.2814 20.861 10.1208 20.9478C9.96013 21.0346 9.81418 21.1509 9.69127 21.2899Z" fill="url(#paint0_linear_113_4076)" fill-opacity="0.2"/>
<g clip-path="url(#clip0_113_4076)">
<g filter="url(#filter0_di_113_4076)">
<path d="M20.2134 4.95024L32.836 15.0577C32.9933 15.1836 33.1035 15.3597 33.152 15.563C33.2005 15.7664 33.1851 15.9874 33.1078 16.1973C33.0306 16.4071 32.8951 16.5959 32.719 16.7389C32.543 16.882 32.3347 16.9725 32.1214 16.9988L30.8721 17.1509V26.4842C30.8721 26.8344 30.8036 27.1896 30.6706 27.5294C30.5376 27.8693 30.3426 28.1872 30.0968 28.465C29.8511 28.7428 29.5593 28.975 29.2382 29.1485C28.917 29.3219 28.5729 29.4332 28.2253 29.4758L9.69775 31.7507C9.35017 31.7934 9.00599 31.7667 8.68487 31.6721C8.36375 31.5775 8.07197 31.4169 7.82619 31.1995C7.58041 30.982 7.38545 30.712 7.25244 30.4048C7.11942 30.0976 7.05096 29.7592 7.05096 29.4091V20.0757L5.803 20.229C5.58996 20.2547 5.38199 20.2152 5.20626 20.1154C5.03054 20.0156 4.89524 19.8603 4.81804 19.6697C4.74085 19.4792 4.72535 19.2622 4.77358 19.0472C4.82181 18.8322 4.93152 18.6292 5.08837 18.4647L17.7096 5.25768C18.0513 4.90015 18.498 4.67025 18.9615 4.61333C19.4251 4.55642 19.8717 4.67663 20.2134 4.95024ZM12.6913 21.1898C12.4432 21.4703 12.3038 21.8265 12.3038 22.1801C12.3038 22.5336 12.4432 22.8556 12.6913 23.0752C14.3199 24.516 16.5287 25.1666 18.8318 24.8838C21.135 24.601 23.3438 23.408 24.9724 21.5673C25.2134 21.2862 25.3468 20.933 25.3438 20.5838C25.3408 20.2345 25.2016 19.9172 24.9563 19.7001C24.7109 19.4831 24.379 19.3836 24.032 19.4232C23.685 19.4627 23.3507 19.6382 23.1011 19.9117C21.9689 21.1912 20.4335 22.0204 18.8325 22.2169C17.2315 22.4135 15.6961 21.9614 14.5639 20.9599C14.441 20.851 14.295 20.7706 14.1344 20.7232C13.9737 20.6759 13.8015 20.6625 13.6276 20.6838C13.4537 20.7052 13.2814 20.7609 13.1208 20.8477C12.9601 20.9345 12.8142 21.0508 12.6913 21.1898Z" fill="url(#paint1_linear_113_4076)"/>
<path d="M20.2134 4.95024L32.836 15.0577C32.9933 15.1836 33.1035 15.3597 33.152 15.563C33.2005 15.7664 33.1851 15.9874 33.1078 16.1973C33.0306 16.4071 32.8951 16.5959 32.719 16.7389C32.543 16.882 32.3347 16.9725 32.1214 16.9988L30.8721 17.1509V26.4842C30.8721 26.8344 30.8036 27.1896 30.6706 27.5294C30.5376 27.8693 30.3426 28.1872 30.0968 28.465C29.8511 28.7428 29.5593 28.975 29.2382 29.1485C28.917 29.3219 28.5729 29.4332 28.2253 29.4758L9.69775 31.7507C9.35017 31.7934 9.00599 31.7667 8.68487 31.6721C8.36375 31.5775 8.07197 31.4169 7.82619 31.1995C7.58041 30.982 7.38545 30.712 7.25244 30.4048C7.11942 30.0976 7.05096 29.7592 7.05096 29.4091V20.0757L5.803 20.229C5.58996 20.2547 5.38199 20.2152 5.20626 20.1154C5.03054 20.0156 4.89524 19.8603 4.81804 19.6697C4.74085 19.4792 4.72535 19.2622 4.77358 19.0472C4.82181 18.8322 4.93152 18.6292 5.08837 18.4647L17.7096 5.25768C18.0513 4.90015 18.498 4.67025 18.9615 4.61333C19.4251 4.55642 19.8717 4.67663 20.2134 4.95024ZM12.6913 21.1898C12.4432 21.4703 12.3038 21.8265 12.3038 22.1801C12.3038 22.5336 12.4432 22.8556 12.6913 23.0752C14.3199 24.516 16.5287 25.1666 18.8318 24.8838C21.135 24.601 23.3438 23.408 24.9724 21.5673C25.2134 21.2862 25.3468 20.933 25.3438 20.5838C25.3408 20.2345 25.2016 19.9172 24.9563 19.7001C24.7109 19.4831 24.379 19.3836 24.032 19.4232C23.685 19.4627 23.3507 19.6382 23.1011 19.9117C21.9689 21.1912 20.4335 22.0204 18.8325 22.2169C17.2315 22.4135 15.6961 21.9614 14.5639 20.9599C14.441 20.851 14.295 20.7706 14.1344 20.7232C13.9737 20.6759 13.8015 20.6625 13.6276 20.6838C13.4537 20.7052 13.2814 20.7609 13.1208 20.8477C12.9601 20.9345 12.8142 21.0508 12.6913 21.1898Z" fill="url(#paint2_radial_113_4076)" fill-opacity="0.3"/>
<path d="M20.2134 4.95024L32.836 15.0577C32.9933 15.1836 33.1035 15.3597 33.152 15.563C33.2005 15.7664 33.1851 15.9874 33.1078 16.1973C33.0306 16.4071 32.8951 16.5959 32.719 16.7389C32.543 16.882 32.3347 16.9725 32.1214 16.9988L30.8721 17.1509V26.4842C30.8721 26.8344 30.8036 27.1896 30.6706 27.5294C30.5376 27.8693 30.3426 28.1872 30.0968 28.465C29.8511 28.7428 29.5593 28.975 29.2382 29.1485C28.917 29.3219 28.5729 29.4332 28.2253 29.4758L9.69775 31.7507C9.35017 31.7934 9.00599 31.7667 8.68487 31.6721C8.36375 31.5775 8.07197 31.4169 7.82619 31.1995C7.58041 30.982 7.38545 30.712 7.25244 30.4048C7.11942 30.0976 7.05096 29.7592 7.05096 29.4091V20.0757L5.803 20.229C5.58996 20.2547 5.38199 20.2152 5.20626 20.1154C5.03054 20.0156 4.89524 19.8603 4.81804 19.6697C4.74085 19.4792 4.72535 19.2622 4.77358 19.0472C4.82181 18.8322 4.93152 18.6292 5.08837 18.4647L17.7096 5.25768C18.0513 4.90015 18.498 4.67025 18.9615 4.61333C19.4251 4.55642 19.8717 4.67663 20.2134 4.95024ZM12.6913 21.1898C12.4432 21.4703 12.3038 21.8265 12.3038 22.1801C12.3038 22.5336 12.4432 22.8556 12.6913 23.0752C14.3199 24.516 16.5287 25.1666 18.8318 24.8838C21.135 24.601 23.3438 23.408 24.9724 21.5673C25.2134 21.2862 25.3468 20.933 25.3438 20.5838C25.3408 20.2345 25.2016 19.9172 24.9563 19.7001C24.7109 19.4831 24.379 19.3836 24.032 19.4232C23.685 19.4627 23.3507 19.6382 23.1011 19.9117C21.9689 21.1912 20.4335 22.0204 18.8325 22.2169C17.2315 22.4135 15.6961 21.9614 14.5639 20.9599C14.441 20.851 14.295 20.7706 14.1344 20.7232C13.9737 20.6759 13.8015 20.6625 13.6276 20.6838C13.4537 20.7052 13.2814 20.7609 13.1208 20.8477C12.9601 20.9345 12.8142 21.0508 12.6913 21.1898Z" fill="url(#paint3_linear_113_4076)" fill-opacity="0.8"/>
<path d="M12.3404 23.4718L12.3403 23.4718C11.9992 23.1699 11.8075 22.7272 11.8075 22.241C11.8075 21.755 11.9991 21.2653 12.3402 20.8796L12.3404 23.4718ZM12.3404 23.4718C14.062 24.995 16.3971 25.6827 18.8318 25.3838C21.2666 25.0848 23.6016 23.8237 25.3233 21.8777L25.3233 21.8778M12.3404 23.4718L25.3233 21.8778M25.3233 21.8778L25.3293 21.8708M25.3233 21.8778L25.3293 21.8708M25.3293 21.8708C25.6608 21.4843 25.8442 20.9987 25.8401 20.5185C25.8359 20.0383 25.6446 19.602 25.3072 19.3035C24.9698 19.005 24.5134 18.8682 24.0363 18.9226C23.5592 18.977 23.0995 19.2183 22.7563 19.5944L22.7563 19.5943M25.3293 21.8708L22.7563 19.5943M22.7563 19.5943L22.7502 19.6012M22.7563 19.5943L22.7502 19.6012M22.7502 19.6012C21.7111 20.7755 20.3019 21.5365 18.8325 21.7169M22.7502 19.6012L18.8325 21.7169M18.8325 21.7169C17.3632 21.8974 15.9541 21.4824 14.915 20.5635L18.8325 21.7169ZM32.5006 15.4675L32.5008 15.4676C32.5844 15.5345 32.6429 15.628 32.6687 15.7361C32.6945 15.8441 32.6863 15.9615 32.6453 16.073C32.6042 16.1845 32.5322 16.2848 32.4387 16.3608C32.3453 16.4367 32.2348 16.4847 32.1216 16.4988C32.1215 16.4988 32.1213 16.4988 32.1212 16.4988L30.8726 16.6508L30.3758 16.7113V17.2118V26.5451C30.3758 26.8297 30.3202 27.1182 30.2121 27.3944C30.104 27.6705 29.9456 27.9288 29.7459 28.1545C29.5462 28.3802 29.3092 28.5689 29.0482 28.7099C28.7873 28.8508 28.5077 28.9412 28.2253 28.9758L9.69775 31.2507C9.41535 31.2854 9.1357 31.2637 8.87479 31.1869C8.61387 31.11 8.3768 30.9795 8.17711 30.8028C7.97741 30.6262 7.81901 30.4068 7.71093 30.1572C7.60286 29.9076 7.54724 29.6327 7.54724 29.3481V20.0148V19.5148L7.05096 19.5757L5.80385 19.7289C5.8037 19.7289 5.80355 19.7289 5.8034 19.7289C5.69038 19.7425 5.58006 19.7215 5.48683 19.6685C5.39348 19.6155 5.3216 19.533 5.28059 19.4318C5.23958 19.3305 5.23135 19.2153 5.25697 19.101C5.28256 18.987 5.34073 18.8792 5.42389 18.7919C5.42399 18.7918 5.4241 18.7917 5.4242 18.7916L18.0449 5.58508C18.0449 5.58508 18.0449 5.58507 18.0449 5.58506C18.2951 5.32332 18.6222 5.155 18.9615 5.11333C19.3009 5.07166 19.6279 5.15967 19.8781 5.36L32.5006 15.4675ZM14.9149 20.5634C14.7459 20.4137 14.5453 20.3031 14.3244 20.238C14.1035 20.1729 13.8667 20.1545 13.6276 20.1838C13.3884 20.2132 13.1517 20.2898 12.9307 20.4091C12.7099 20.5285 12.5093 20.6883 12.3403 20.8794L14.9149 20.5634Z" stroke="url(#paint4_linear_113_4076)"/>
</g>
</g>
<defs>
<filter id="filter0_di_113_4076" x="2.74609" y="2.59949" width="32.4336" height="33.171" filterUnits="userSpaceOnUse" color-interpolation-filters="sRGB">
<feFlood flood-opacity="0" result="BackgroundImageFix"/>
<feColorMatrix in="SourceAlpha" type="matrix" values="0 0 0 0 0 0 0 0 0 0 0 0 0 0 0 0 0 0 127 0" result="hardAlpha"/>
<feOffset/>
<feGaussianBlur stdDeviation="1"/>
<feComposite in2="hardAlpha" operator="out"/>
<feColorMatrix type="matrix" values="0 0 0 0 1 0 0 0 0 0.799566 0 0 0 0 0.270833 0 0 0 1 0"/>
<feBlend mode="normal" in2="BackgroundImageFix" result="effect1_dropShadow_113_4076"/>
<feBlend mode="normal" in="SourceGraphic" in2="effect1_dropShadow_113_4076" result="shape"/>
<feColorMatrix in="SourceAlpha" type="matrix" values="0 0 0 0 0 0 0 0 0 0 0 0 0 0 0 0 0 0 127 0" result="hardAlpha"/>
<feOffset dy="4"/>
<feGaussianBlur stdDeviation="2"/>
<feComposite in2="hardAlpha" operator="arithmetic" k2="-1" k3="1"/>
<feColorMatrix type="matrix" values="0 0 0 0 1 0 0 0 0 1 0 0 0 0 1 0 0 0 0.1 0"/>
<feBlend mode="normal" in2="shape" result="effect2_innerShadow_113_4076"/>
</filter>
<linearGradient id="paint0_linear_113_4076" x1="13.5" y1="13.4999" x2="10.0607" y2="9.92217" gradientUnits="userSpaceOnUse">
<stop stop-color="white" stop-opacity="0"/>
<stop offset="1" stop-color="white"/>
</linearGradient>
<linearGradient id="paint1_linear_113_4076" x1="11" y1="7.89978" x2="24.1262" y2="29.2881" gradientUnits="userSpaceOnUse">
<stop stop-color="#CB9300"/>
<stop offset="0.375" stop-color="#F9B501"/>
<stop offset="1" stop-color="#DEAF34"/>
</linearGradient>
<radialGradient id="paint2_radial_113_4076" cx="0" cy="0" r="1" gradientUnits="userSpaceOnUse" gradientTransform="translate(20 20.9999) rotate(-135) scale(12.7279 13.9193)">
<stop stop-color="white" stop-opacity="0"/>
<stop offset="1" stop-color="white"/>
</radialGradient>
<linearGradient id="paint3_linear_113_4076" x1="18.5" y1="15.9999" x2="28.0746" y2="28.8243" gradientUnits="userSpaceOnUse">
<stop stop-color="#FFC700" stop-opacity="0"/>
<stop offset="1" stop-color="#E1A300"/>
</linearGradient>
<linearGradient id="paint4_linear_113_4076" x1="14.5" y1="8.39978" x2="29.9681" y2="28.5005" gradientUnits="userSpaceOnUse">
<stop stop-color="white"/>
<stop offset="1" stop-color="white" stop-opacity="0.51"/>
</linearGradient>
<clipPath id="clip0_113_4076">
<rect width="32" height="32" fill="white" transform="matrix(0.992546 -0.121869 0 1 3 3.89978)"/>
</clipPath>
</defs>
</svg>
