<?xml version="1.0" encoding="UTF-8"?>
<svg xmlns="http://www.w3.org/2000/svg" width="400" height="170" viewBox="0 0 400 170">
    <!-- 强风状态指示器 -->
    <g id="wind-warning" transform="translate(20, 0)">
      <rect x="0" y="0" width="160" height="170" rx="5" fill="#181919" stroke="#292929" stroke-width="1" />
      
      <!-- 标题 -->
      <text x="80" y="30" text-anchor="middle" class="subtitle" font-size="16px" fill="#FFFFFF">强风预警</text>
      
      <!-- 风力等级图标 -->
      <g transform="translate(80, 70)">
        <use href="#icon-wind" width="40" height="40" x="-20" y="-20" />
        <circle cx="0" cy="0" r="30" fill="none" stroke="#1EE7E7" stroke-width="1" stroke-dasharray="5,3" class="rotate" />
      </g>
      
      <!-- 风力等级 -->
      <text x="80" y="110" text-anchor="middle" class="data-label" font-size="14px" fill="#C7C7C7">当前风力: 3级</text>
      <text x="80" y="130" text-anchor="middle" class="data-label" font-size="14px" fill="#C7C7C7">预警级别: <tspan fill="#19b558">低</tspan></text>
      
      <!-- 应对措施按钮 -->
      <rect x="20" y="145" width="120" height="25" rx="2" fill="#1DAB7E21" stroke="#1DAB7E" stroke-width="1" class="pulse" />
      <text x="80" y="162" text-anchor="middle" fill="#FFFFFF" font-size="12px">查看应对措施</text>
    </g>
    
    <!-- 洪涝状态指示器 -->
    <g id="flood-warning" transform="translate(200, 0)">
      <rect x="0" y="0" width="160" height="170" rx="5" fill="#181919" stroke="#292929" stroke-width="1" />
      
      <!-- 标题 -->
      <text x="80" y="30" text-anchor="middle" class="subtitle" font-size="16px" fill="#FFFFFF">洪涝预警</text>
      
      <!-- 水位线图标 -->
      <g transform="translate(80, 70)">
        <rect x="-20" y="-20" width="40" height="40" fill="none" stroke="#2A82E4" stroke-width="1" />
        <rect x="-20" y="0" width="40" height="20" fill="#2A82E4" opacity="0.3" />
        <line x1="-20" y1="0" x2="20" y2="0" stroke="#2A82E4" stroke-width="2" stroke-dasharray="2,1" class="animated-line" />
      </g>
      
      <!-- 水位状态 -->
      <text x="80" y="110" text-anchor="middle" class="data-label" font-size="14px" fill="#C7C7C7">当前水位: 正常</text>
      <text x="80" y="130" text-anchor="middle" class="data-label" font-size="14px" fill="#C7C7C7">预警级别: <tspan fill="#19b558">低</tspan></text>
      
      <!-- 应急预案按钮 -->
      <rect x="20" y="145" width="120" height="25" rx="2" fill="#2A82E421" stroke="#2A82E4" stroke-width="1" />
      <text x="80" y="162" text-anchor="middle" fill="#FFFFFF" font-size="12px">下载应急预案</text>
      <use href="#icon-download" width="16" height="16" x="130" y="154" />
    </g>
    
    <!-- 应对措施折叠面板 (初始隐藏) -->
    <g id="measures-panel" transform="translate(20, 0)" opacity="0" class="fade-in">
      <rect x="0" y="0" width="344" height="170" rx="5" fill="#181919" stroke="#01FCE3" stroke-width="1" filter="url(#cardShadow)" />
      
      <!-- 标题 -->
      <text x="20" y="30" class="subtitle" font-size="16px" fill="#FFFFFF">强风应对措施</text>
      <line x1="20" y1="45" x2="324" y2="45" stroke="#3D3D3D" stroke-width="1" />
      
      <!-- 流程图 -->
      <g transform="translate(30, 60)">
        <!-- 步骤1 -->
        <rect x="0" y="0" width="80" height="30" rx="2" fill="#1DAB7E21" stroke="#1DAB7E" stroke-width="1" />
        <text x="40" y="20" text-anchor="middle" fill="#FFFFFF" font-size="12px">检查支撑</text>
        
        <!-- 箭头 -->
        <line x1="80" y1="15" x2="100" y2="15" stroke="#FFFFFF" stroke-width="1" />
        <polygon points="100,15 95,12 95,18" fill="#FFFFFF" />
        
        <!-- 步骤2 -->
        <rect x="100" y="0" width="80" height="30" rx="2" fill="#1DAB7E21" stroke="#1DAB7E" stroke-width="1" />
        <text x="140" y="20" text-anchor="middle" fill="#FFFFFF" font-size="12px">加固树干</text>
        
        <!-- 箭头 -->
        <line x1="180" y1="15" x2="200" y2="15" stroke="#FFFFFF" stroke-width="1" />
        <polygon points="200,15 195,12 195,18" fill="#FFFFFF" />
        
        <!-- 步骤3 -->
        <rect x="200" y="0" width="80" height="30" rx="2" fill="#1DAB7E21" stroke="#1DAB7E" stroke-width="1" />
        <text x="240" y="20" text-anchor="middle" fill="#FFFFFF" font-size="12px">监测倾角</text>
        
        <!-- 步骤4 -->
        <rect x="50" y="60" width="80" height="30" rx="2" fill="#1DAB7E21" stroke="#1DAB7E" stroke-width="1" />
        <text x="90" y="80" text-anchor="middle" fill="#FFFFFF" font-size="12px">记录数据</text>
        
        <!-- 箭头 -->
        <line x1="240" y1="30" x2="240" y2="45" stroke="#FFFFFF" stroke-width="1" />
        <line x1="240" y1="45" x2="90" y2="45" stroke="#FFFFFF" stroke-width="1" />
        <line x1="90" y1="45" x2="90" y2="60" stroke="#FFFFFF" stroke-width="1" />
        <polygon points="90,60 87,55 93,55" fill="#FFFFFF" />
        
        <!-- 步骤5 -->
        <rect x="150" y="60" width="80" height="30" rx="2" fill="#1DAB7E21" stroke="#1DAB7E" stroke-width="1" />
        <text x="190" y="80" text-anchor="middle" fill="#FFFFFF" font-size="12px">上报情况</text>
        
        <!-- 箭头 -->
        <line x1="130" y1="75" x2="150" y2="75" stroke="#FFFFFF" stroke-width="1" />
        <polygon points="150,75 145,72 145,78" fill="#FFFFFF" />
      </g>
      
      <!-- 关闭按钮 -->
      <circle cx="324" cy="30" r="10" fill="#3D3D3D" />
      <line x1="320" y1="26" x2="328" y2="34" stroke="#FFFFFF" stroke-width="1.5" />
      <line x1="328" y1="26" x2="320" y2="34" stroke="#FFFFFF" stroke-width="1.5" />
    </g>
</svg>
