<svg width="35" height="35" viewBox="0 0 35 35" fill="none" xmlns="http://www.w3.org/2000/svg">
<g filter="url(#filter0_d_117_122)">
<path d="M28.5061 30.2319C28.5061 30.2319 20.7901 21.9794 20.717 21.9035C20.575 21.7514 20.3848 21.6529 20.1786 21.6246C19.9724 21.5964 19.7627 21.6401 19.585 21.7483C17.0619 22.8226 14.7902 21.6069 13.5723 20.4553C12.6063 19.547 11.9992 18.3216 11.8619 17.0029C11.8493 16.6197 11.9109 16.2376 12.0435 15.8778C12.1027 15.7205 12.2004 15.5806 12.3277 15.4709C12.4549 15.3612 12.6077 15.2852 12.772 15.2498C12.9363 15.2144 13.1068 15.2208 13.268 15.2684C13.4291 15.316 13.5758 15.4033 13.6945 15.5222L15.4694 17.2906C15.5843 17.4049 15.7251 17.4897 15.8798 17.5379C16.0346 17.5861 16.1986 17.5962 16.3581 17.5674L18.0991 17.2552C18.301 17.2188 18.4868 17.1215 18.6319 16.9766C18.777 16.8316 18.8743 16.6459 18.9109 16.4441L19.2265 14.7064C19.2554 14.5461 19.2451 14.3812 19.1963 14.2258C19.1475 14.0704 19.0617 13.9291 18.9463 13.8142L17.159 12.0335C17.0403 11.9173 16.9524 11.7734 16.9032 11.6148C16.854 11.4562 16.8451 11.2878 16.8773 11.1248C16.9095 10.9619 16.9818 10.8095 17.0877 10.6815C17.1935 10.5535 17.3296 10.4538 17.4836 10.3915C17.8578 10.2484 18.2579 10.1851 18.6581 10.2057C19.9832 10.3228 21.2166 10.931 22.1161 11.9109C23.5212 13.3162 24.3764 16.0258 23.3929 17.9272C23.2791 18.1032 23.2322 18.3143 23.2607 18.522C23.2893 18.7296 23.3914 18.9202 23.5486 19.059C23.5755 19.0868 23.626 19.1354 23.6953 19.2004L23.6896 19.2066L31.9914 26.7295C32.2282 26.9554 32.4171 27.2268 32.5466 27.5273C32.6761 27.8278 32.7436 28.1514 32.7452 28.4786C32.7467 28.8059 32.6822 29.13 32.5555 29.4318C32.4289 29.7335 32.2426 30.0066 32.0079 30.2347C31.5248 30.7109 30.8741 30.9784 30.1957 30.9798C29.8767 30.9849 29.5604 30.9207 29.2687 30.7915C28.9769 30.6624 28.7167 30.4714 28.5061 30.2319ZM29.2099 28.3928C29.2097 28.6123 29.2857 28.8252 29.425 28.995C29.5642 29.1648 29.7581 29.281 29.9735 29.3239C30.1889 29.3668 30.4125 29.3337 30.6062 29.2302C30.7999 29.1267 30.9517 28.9593 31.0357 28.7564C31.1198 28.5535 31.1308 28.3278 31.067 28.1177C31.0032 27.9076 30.8684 27.7262 30.6858 27.6043C30.5031 27.4824 30.2838 27.4276 30.0652 27.4493C29.8466 27.4709 29.6424 27.5677 29.4872 27.7231C29.3094 27.9014 29.2094 28.1428 29.2099 28.3947V28.3928ZM17.0529 30.9793C16.7351 30.9793 16.4204 30.9167 16.1267 30.7951C15.8331 30.6735 15.5663 30.4953 15.3415 30.2706C15.1168 30.046 14.9385 29.7792 14.8169 29.4857C14.6953 29.1921 14.6327 28.8775 14.6327 28.5597V27.0097C13.7069 26.7593 12.8167 26.3926 11.9832 25.9184L10.4964 27.4048C10.2712 27.6296 10.0039 27.8078 9.70985 27.9292C9.41576 28.0507 9.10061 28.113 8.78242 28.1127C8.46422 28.1123 8.14922 28.0493 7.8554 27.9272C7.56158 27.8051 7.2947 27.6263 7.07001 27.4011L6.21436 26.5437C5.76093 26.0896 5.50626 25.4741 5.50626 24.8324C5.50626 24.1907 5.76093 23.5752 6.21436 23.1211L7.69123 21.6422C7.21071 20.8064 6.83779 19.9133 6.58134 18.984H4.98324C4.34135 18.984 3.72575 18.7291 3.27186 18.2753C2.81798 17.8215 2.56299 17.2061 2.56299 16.5644V15.3548C2.56299 15.037 2.62559 14.7224 2.74722 14.4288C2.86885 14.1353 3.04712 13.8685 3.27186 13.6439C3.49661 13.4192 3.76341 13.2409 4.05705 13.1193C4.35069 12.9977 4.66541 12.9352 4.98324 12.9352H6.56247C6.80794 12.0135 7.16814 11.1263 7.63463 10.2944L6.21578 8.87353C5.76211 8.4191 5.50732 7.80329 5.50732 7.16125C5.50732 6.51922 5.76211 5.90341 6.21578 5.44898L7.06954 4.59355C7.294 4.36857 7.5606 4.19 7.85412 4.06806C8.14763 3.94612 8.46231 3.8832 8.78016 3.8829C9.09801 3.88259 9.4128 3.9449 9.70655 4.06628C10.0003 4.18765 10.2672 4.3657 10.4921 4.59025L11.8884 5.98516C12.7486 5.48516 13.6706 5.09977 14.6308 4.83877V3.21327C14.6308 2.57154 14.8858 1.9561 15.3397 1.50233C15.7935 1.04856 16.4091 0.79364 17.051 0.79364H18.2614C18.9033 0.79364 19.5189 1.04856 19.9728 1.50233C20.4267 1.9561 20.6816 2.57154 20.6816 3.21327V4.83924C21.6426 5.10043 22.5652 5.48631 23.426 5.98704L24.8174 4.59308C25.0422 4.36823 25.309 4.18985 25.6027 4.06814C25.8965 3.94644 26.2113 3.8838 26.5292 3.8838C26.8472 3.8838 27.162 3.94644 27.4557 4.06814C27.7494 4.18985 28.0163 4.36823 28.241 4.59308L29.0976 5.44993C29.5517 5.90411 29.8068 6.52001 29.8068 7.1622C29.8068 7.80439 29.5517 8.42029 29.0976 8.87447L27.6792 10.2939C28.1452 11.1261 28.5054 12.0132 28.7514 12.9347H30.3311C30.9726 12.9347 31.5881 13.1889 32.0419 13.642C32.2665 13.8668 32.4447 14.1336 32.5661 14.4273C32.6875 14.7209 32.7498 15.0356 32.7494 15.3534V16.5644C32.7493 17.2061 32.4943 17.8214 32.0404 18.2752C31.5866 18.7289 30.971 18.9839 30.3292 18.984H28.7311C28.7099 19.0613 28.6872 19.1396 28.6646 19.2165C28.6148 19.379 28.5248 19.5263 28.4029 19.6447C28.281 19.7631 28.1311 19.8487 27.9672 19.8937C27.8033 19.9387 27.6306 19.9415 27.4653 19.9019C27.3 19.8624 27.1474 19.7816 27.0217 19.6673L25.541 18.3224C25.4154 18.2098 25.3206 18.0671 25.2656 17.9076C25.2106 17.7482 25.1973 17.5773 25.2269 17.4113C25.392 16.5238 25.4014 15.6146 25.2547 14.7234C24.9797 13.0925 24.1875 11.5932 22.995 10.4469C21.8026 9.30053 20.273 8.56791 18.6321 8.35716C17.4688 8.20906 16.287 8.32839 15.1768 8.70605C14.0665 9.0837 13.0572 9.70972 12.2256 10.5364C11.394 11.3631 10.7621 12.3686 10.3781 13.4764C9.99408 14.5842 9.86804 15.765 10.0096 16.9289C10.2128 18.5734 10.9402 20.1088 12.0842 21.3079C13.2282 22.5069 14.7279 23.3059 16.3614 23.5865C17.2548 23.7365 18.168 23.7294 19.059 23.5653C19.2225 23.5363 19.3907 23.5491 19.5479 23.6025C19.7052 23.6558 19.8464 23.748 19.9585 23.8704L21.2963 25.3059C21.413 25.431 21.4958 25.5839 21.537 25.7499C21.5782 25.916 21.5764 26.0899 21.5318 26.255C21.4871 26.4202 21.4011 26.5713 21.2818 26.694C21.1625 26.8167 21.0139 26.907 20.85 26.9564L20.6802 27.0035V28.5536C20.6803 28.8713 20.6177 29.186 20.4961 29.4796C20.3745 29.7732 20.1962 30.04 19.9715 30.2646C19.7467 30.4893 19.4799 30.6676 19.1862 30.7891C18.8926 30.9107 18.5778 30.9733 18.26 30.9732L17.0529 30.9793Z" fill="url(#paint0_linear_117_122)"/>
</g>
<defs>
<filter id="filter0_d_117_122" x="0.562988" y="0.79364" width="34.1865" height="34.1865" filterUnits="userSpaceOnUse" color-interpolation-filters="sRGB">
<feFlood flood-opacity="0" result="BackgroundImageFix"/>
<feColorMatrix in="SourceAlpha" type="matrix" values="0 0 0 0 0 0 0 0 0 0 0 0 0 0 0 0 0 0 127 0" result="hardAlpha"/>
<feOffset dy="2"/>
<feGaussianBlur stdDeviation="1"/>
<feComposite in2="hardAlpha" operator="out"/>
<feColorMatrix type="matrix" values="0 0 0 0 0 0 0 0 0 0.2625 0 0 0 0 0.183203 0 0 0 1 0"/>
<feBlend mode="normal" in2="BackgroundImageFix" result="effect1_dropShadow_117_122"/>
<feBlend mode="normal" in="SourceGraphic" in2="effect1_dropShadow_117_122" result="shape"/>
</filter>
<linearGradient id="paint0_linear_117_122" x1="17.6562" y1="0.79364" x2="17.6562" y2="30.9801" gradientUnits="userSpaceOnUse">
<stop stop-color="white"/>
<stop offset="1" stop-color="#4DFFAA"/>
</linearGradient>
</defs>
</svg>
