<svg width="34" height="34" viewBox="0 0 34 34" fill="none" xmlns="http://www.w3.org/2000/svg">
<g filter="url(#filter0_d_117_124)">
<path d="M25.7163 15.0666C24.2778 15.0641 22.871 15.4881 21.6733 16.285H8.45378L9.36765 10.8008H25.0057L25.7163 15.0666ZM18.6338 24.2046H7.13415L8.149 18.1126H19.7771C19.1527 18.9827 18.7269 19.9791 18.5295 21.0317C18.3321 22.0843 18.368 23.1674 18.6347 24.2046H18.6338ZM19.3818 26.0327C19.9819 27.0725 20.8288 27.9485 21.8476 28.5834C22.8665 29.2182 24.026 29.5924 25.2237 29.6728C26.4214 29.7533 27.6204 29.5375 28.715 29.0446C29.8096 28.5517 30.7659 27.7968 31.4997 26.8466C31.683 27.1219 31.7881 27.4418 31.804 27.7722C31.8199 28.1025 31.7458 28.431 31.5898 28.7226C31.4337 29.0142 31.2015 29.258 30.9178 29.4279C30.6341 29.5979 30.3097 29.6878 29.979 29.6879H4.39072C3.90598 29.6879 3.44109 29.4953 3.09832 29.1525C2.75555 28.8096 2.56299 28.3447 2.56299 27.8598C2.56299 27.375 2.75555 26.91 3.09832 26.5672C3.44109 26.2244 3.90598 26.0318 4.39072 26.0318L19.3818 26.0327ZM24.6996 8.97501H9.67425L10.7563 2.48218C10.8512 1.91315 11.1449 1.39626 11.5851 1.02345C12.0253 0.650639 12.5834 0.446084 13.1602 0.446167H21.2168C21.7936 0.446084 22.3518 0.650639 22.7919 1.02345C23.2321 1.39626 23.5258 1.91315 23.6208 2.48218L24.6996 8.97501ZM30.552 21.3857C30.5808 21.6106 30.5931 21.8377 30.5886 22.0644C30.5943 22.2903 30.5828 22.5162 30.5543 22.7403C30.5004 22.9698 30.3263 23.1517 30.0996 23.2156L29.9498 23.2513C29.5619 23.3653 29.2326 23.624 29.0299 23.9739C28.8271 24.3238 28.7665 24.7381 28.8604 25.1315L28.9061 25.285C28.9637 25.5135 28.8929 25.7557 28.7211 25.9175C28.5527 26.0699 28.3609 26.1941 28.1531 26.2854C27.9594 26.4029 27.7574 26.5057 27.5486 26.5934C27.3229 26.662 27.0779 26.6026 26.9089 26.4385L26.8038 26.3252C26.5106 26.0446 26.1207 25.8878 25.7149 25.8874C25.3092 25.887 24.9189 26.0429 24.6251 26.3229L24.5205 26.4362C24.3514 26.6008 24.106 26.6597 23.8808 26.5907C23.6652 26.5209 23.462 26.4173 23.279 26.2836C23.0803 26.175 22.8902 26.0516 22.7101 25.9143C22.6257 25.8348 22.564 25.7341 22.5315 25.6228C22.499 25.5114 22.4967 25.3934 22.525 25.2809L22.5707 25.1346C22.6663 24.7405 22.6064 24.3247 22.4036 23.9735C22.2008 23.6223 21.8705 23.3627 21.4814 23.2485L21.3315 23.2143C21.2202 23.1831 21.1192 23.1226 21.0392 23.0391C20.9592 22.9556 20.9032 22.8521 20.8769 22.7394C20.8295 22.5165 20.818 22.2874 20.8426 22.0608C20.8367 21.8345 20.8486 21.6083 20.8769 21.3844C20.9308 21.155 21.1054 20.9731 21.3315 20.9091L21.4851 20.8734C21.8725 20.7581 22.2011 20.4988 22.4033 20.1487C22.6055 19.7985 22.6659 19.3843 22.5721 18.991L22.5264 18.8411C22.4684 18.6126 22.5392 18.3708 22.7115 18.2099C22.8805 18.0573 23.072 17.9325 23.2794 17.8398C23.4727 17.7223 23.6743 17.6192 23.8826 17.5313C24.1083 17.4627 24.3532 17.5221 24.5223 17.6862L24.6283 17.8018C24.9213 18.0796 25.3095 18.2348 25.7133 18.2354C26.117 18.2361 26.5057 18.0823 26.7997 17.8055L26.9107 17.6862C27.0798 17.5217 27.3247 17.4623 27.5504 17.5313C27.7661 17.6016 27.969 17.7058 28.1522 17.8398C28.3511 17.9487 28.5417 18.0721 28.7224 18.209C28.8938 18.3708 28.9646 18.6126 28.9075 18.8411L28.8591 18.9896C28.7641 19.3821 28.8232 19.7961 29.0242 20.1463C29.2253 20.4965 29.5529 20.7562 29.9397 20.8721L30.0983 20.9086C30.3249 20.9726 30.4995 21.1545 30.5529 21.3839L30.552 21.3857ZM25.7144 24.0054C26.2297 24.0055 26.724 23.801 27.0885 23.4367C27.453 23.0724 27.6578 22.5782 27.658 22.0628C27.6582 21.5474 27.4537 21.0531 27.0894 20.6885C26.7252 20.324 26.2311 20.1191 25.7158 20.1189C25.4607 20.1188 25.208 20.169 24.9723 20.2666C24.7365 20.3641 24.5223 20.5072 24.3418 20.6876C23.9773 21.0519 23.7724 21.5461 23.7723 22.0614C23.7721 22.5768 23.9766 23.0712 24.3408 23.4357C24.7051 23.8003 25.1992 24.0052 25.7144 24.0054Z" fill="url(#paint0_linear_117_124)"/>
</g>
<defs>
<filter id="filter0_d_117_124" x="0.562988" y="0.446167" width="33.2432" height="33.2432" filterUnits="userSpaceOnUse" color-interpolation-filters="sRGB">
<feFlood flood-opacity="0" result="BackgroundImageFix"/>
<feColorMatrix in="SourceAlpha" type="matrix" values="0 0 0 0 0 0 0 0 0 0 0 0 0 0 0 0 0 0 127 0" result="hardAlpha"/>
<feOffset dy="2"/>
<feGaussianBlur stdDeviation="1"/>
<feComposite in2="hardAlpha" operator="out"/>
<feColorMatrix type="matrix" values="0 0 0 0 0 0 0 0 0 0.2625 0 0 0 0 0.183203 0 0 0 1 0"/>
<feBlend mode="normal" in2="BackgroundImageFix" result="effect1_dropShadow_117_124"/>
<feBlend mode="normal" in="SourceGraphic" in2="effect1_dropShadow_117_124" result="shape"/>
</filter>
<linearGradient id="paint0_linear_117_124" x1="17.1845" y1="0.446167" x2="17.1845" y2="29.6893" gradientUnits="userSpaceOnUse">
<stop stop-color="white"/>
<stop offset="1" stop-color="#4DFFAA"/>
</linearGradient>
</defs>
</svg>
