<svg width="2560" height="66" viewBox="0 0 2560 66" fill="none" xmlns="http://www.w3.org/2000/svg">
<path d="M684 68H1876H2560V62L2545 46H1733.96C1728.71 46 1723.51 44.9391 1718.68 42.8809L1633.02 6.39809C1623.11 2.17622 1612.45 0 1601.67 0H1280H958.327C947.554 0 936.891 2.17621 926.978 6.39808L841.323 42.8809C836.491 44.9391 831.293 46 826.04 46H15L0 62V68H684Z" fill="url(#paint0_linear_145_971)"/>
<path d="M684 68H1876H2560V62L2545 46H1733.96C1728.71 46 1723.51 44.9391 1718.68 42.8809L1633.02 6.39809C1623.11 2.17622 1612.45 0 1601.67 0H1280H958.327C947.554 0 936.891 2.17621 926.978 6.39808L841.323 42.8809C836.491 44.9391 831.293 46 826.04 46H15L0 62V68H684Z" fill="url(#paint1_linear_145_971)"/>
<path d="M0 66V56L10 66H0Z" fill="#CCD300"/>
<path d="M2560 66V56L2550 66H2560Z" fill="#CCD300"/>
<defs>
<linearGradient id="paint0_linear_145_971" x1="0" y1="62.5" x2="2560" y2="62.5" gradientUnits="userSpaceOnUse">
<stop stop-color="#0C4848" stop-opacity="0.2"/>
<stop offset="0.519834" stop-color="#0C4848" stop-opacity="0.4"/>
<stop offset="1" stop-color="#0C4848" stop-opacity="0.2"/>
</linearGradient>
<linearGradient id="paint1_linear_145_971" x1="1280" y1="165" x2="1280" y2="-40" gradientUnits="userSpaceOnUse">
<stop offset="0.53382" stop-color="#0C4848" stop-opacity="0"/>
<stop offset="0.807527" stop-color="#0E9394" stop-opacity="0.6"/>
</linearGradient>
</defs>
</svg>
