<svg width="35" height="36" viewBox="0 0 35 36" fill="none" xmlns="http://www.w3.org/2000/svg">
<g clip-path="url(#clip0_113_4091)">
<path d="M10.2746 10.9303L21.6293 9.53607C22.1693 9.46977 22.5028 8.94882 22.5028 8.54882V5.82882C22.5028 5.28482 22.0899 4.99952 21.6293 5.05607L21.0894 5.12236C20.5494 5.18866 20.216 4.74961 20.216 4.34961C20.216 3.38961 19.4696 2.74525 18.5326 2.8603L13.5143 3.47647C12.5614 3.59347 11.8309 4.43516 11.8309 5.37916C11.8309 5.92316 11.418 6.30986 10.9575 6.36641L10.354 6.4405C9.81407 6.5068 9.48058 7.02775 9.48058 7.42775V10.1477C9.38529 10.7034 9.79819 10.9888 10.2746 10.9303ZM16.0234 4.76839C17.1033 4.63579 17.8497 5.42415 17.8497 6.44815C17.8497 7.68015 16.9763 8.45939 16.0234 8.57639C15.0706 8.69338 14.1972 7.92062 14.1972 6.89662C14.1972 5.87262 15.0706 4.88538 16.0234 4.76839ZM25.6154 4.96664L25.0755 5.03294C24.5355 5.09923 24.1226 5.48593 24.1226 6.02993V10.0459C24.1226 10.5899 23.7097 10.9766 23.2492 11.0332L8.6389 12.9711C8.09895 13.0374 7.76546 12.5983 7.76546 12.1983V8.18234C7.76546 7.63834 7.35256 7.35304 6.89202 7.40958L6.35207 7.47588C4.93868 7.50542 4.31934 8.54147 4.31934 9.77347V31.9815C4.31934 33.0055 5.27218 34.2485 6.54264 34.0925L25.2025 31.8013C26.2824 31.6687 27.4258 30.2964 27.4258 29.1443V6.77635C27.5211 5.75665 26.7747 4.8243 25.6154 4.96664ZM12.7679 25.9841L9.32177 26.4072C8.98827 26.4482 8.7183 26.2093 8.7183 25.8733C8.7183 25.5373 8.98827 25.2322 9.32177 25.1912L12.7679 24.7681C13.1014 24.7272 13.3714 24.966 13.3714 25.302C13.3714 25.638 13.1014 25.9432 12.7679 25.9841ZM16.4205 21.1836L9.32177 22.0552C8.98827 22.0962 8.7183 21.8573 8.7183 21.5213C8.7183 21.1853 8.98827 20.8802 9.32177 20.8392L16.4205 19.9676C16.754 19.9267 17.0239 20.1655 17.0239 20.5015C17.0239 20.8375 16.754 21.1427 16.4205 21.1836ZM23.0427 15.5385C23.0427 15.8745 22.7728 16.1637 22.4551 16.2027L9.30589 17.8172C8.97239 17.8581 8.7183 17.6173 8.7183 17.2973V17.2653C8.7183 16.9293 8.98827 16.6402 9.30589 16.6012L22.4551 14.9867C22.7886 14.9457 23.0427 15.1865 23.0427 15.5065V15.5385Z" fill="#02B780"/>
<path d="M10.2746 10.9303L21.6293 9.53607C22.1693 9.46977 22.5028 8.94882 22.5028 8.54882V5.82882C22.5028 5.28482 22.0899 4.99952 21.6293 5.05607L21.0894 5.12236C20.5494 5.18866 20.216 4.74961 20.216 4.34961C20.216 3.38961 19.4696 2.74525 18.5326 2.8603L13.5143 3.47647C12.5614 3.59347 11.8309 4.43516 11.8309 5.37916C11.8309 5.92316 11.418 6.30986 10.9575 6.36641L10.354 6.4405C9.81407 6.5068 9.48058 7.02775 9.48058 7.42775V10.1477C9.38529 10.7034 9.79819 10.9888 10.2746 10.9303ZM16.0234 4.76839C17.1033 4.63579 17.8497 5.42415 17.8497 6.44815C17.8497 7.68015 16.9763 8.45939 16.0234 8.57639C15.0706 8.69338 14.1972 7.92062 14.1972 6.89662C14.1972 5.87262 15.0706 4.88538 16.0234 4.76839ZM25.6154 4.96664L25.0755 5.03294C24.5355 5.09923 24.1226 5.48593 24.1226 6.02993V10.0459C24.1226 10.5899 23.7097 10.9766 23.2492 11.0332L8.6389 12.9711C8.09895 13.0374 7.76546 12.5983 7.76546 12.1983V8.18234C7.76546 7.63834 7.35256 7.35304 6.89202 7.40958L6.35207 7.47588C4.93868 7.50542 4.31934 8.54147 4.31934 9.77347V31.9815C4.31934 33.0055 5.27218 34.2485 6.54264 34.0925L25.2025 31.8013C26.2824 31.6687 27.4258 30.2964 27.4258 29.1443V6.77635C27.5211 5.75665 26.7747 4.8243 25.6154 4.96664ZM12.7679 25.9841L9.32177 26.4072C8.98827 26.4482 8.7183 26.2093 8.7183 25.8733C8.7183 25.5373 8.98827 25.2322 9.32177 25.1912L12.7679 24.7681C13.1014 24.7272 13.3714 24.966 13.3714 25.302C13.3714 25.638 13.1014 25.9432 12.7679 25.9841ZM16.4205 21.1836L9.32177 22.0552C8.98827 22.0962 8.7183 21.8573 8.7183 21.5213C8.7183 21.1853 8.98827 20.8802 9.32177 20.8392L16.4205 19.9676C16.754 19.9267 17.0239 20.1655 17.0239 20.5015C17.0239 20.8375 16.754 21.1427 16.4205 21.1836ZM23.0427 15.5385C23.0427 15.8745 22.7728 16.1637 22.4551 16.2027L9.30589 17.8172C8.97239 17.8581 8.7183 17.6173 8.7183 17.2973V17.2653C8.7183 16.9293 8.98827 16.6402 9.30589 16.6012L22.4551 14.9867C22.7886 14.9457 23.0427 15.1865 23.0427 15.5065V15.5385Z" fill="url(#paint0_linear_113_4091)" fill-opacity="0.2"/>
</g>
<g clip-path="url(#clip1_113_4091)">
<g filter="url(#filter0_di_113_4091)">
<path d="M13.2746 10.8302L24.6293 9.43597C25.1693 9.36967 25.5028 8.84872 25.5028 8.44872V5.72872C25.5028 5.18472 25.0899 4.89942 24.6293 4.95597L24.0894 5.02227C23.5494 5.08856 23.216 4.64951 23.216 4.24951C23.216 3.28951 22.4696 2.64516 21.5326 2.7602L16.5143 3.37637C15.5614 3.49337 14.8309 4.33506 14.8309 5.27906C14.8309 5.82306 14.418 6.20976 13.9575 6.26631L13.354 6.34041C12.8141 6.4067 12.4806 6.92765 12.4806 7.32765V10.0477C12.3853 10.6033 12.7982 10.8887 13.2746 10.8302ZM19.0234 4.66829C20.1033 4.53569 20.8497 5.32405 20.8497 6.34805C20.8497 7.58005 19.9763 8.35929 19.0234 8.47629C18.0706 8.59328 17.1972 7.82053 17.1972 6.79653C17.1972 5.77253 18.0706 4.78528 19.0234 4.66829ZM28.6154 4.86654L28.0755 4.93284C27.5355 4.99914 27.1226 5.38583 27.1226 5.92983V9.94583C27.1226 10.4898 26.7097 10.8765 26.2492 10.9331L11.6389 12.871C11.099 12.9373 10.7655 12.4982 10.7655 12.0982V8.08224C10.7655 7.53824 10.3526 7.25294 9.89202 7.30949L9.35207 7.37578C7.93868 7.40532 7.31934 8.44137 7.31934 9.67337V31.8814C7.31934 32.9054 8.27218 34.1484 9.54264 33.9924L28.2025 31.7012C29.2824 31.5686 30.4258 30.1963 30.4258 29.0443V6.67625C30.5211 5.65655 29.7747 4.7242 28.6154 4.86654ZM15.7679 25.884L12.3218 26.3071C11.9883 26.3481 11.7183 26.1092 11.7183 25.7732C11.7183 25.4372 11.9883 25.1321 12.3218 25.0912L15.7679 24.668C16.1014 24.6271 16.3714 24.8659 16.3714 25.2019C16.3714 25.5379 16.1014 25.8431 15.7679 25.884ZM19.4205 21.0835L12.3218 21.9552C11.9883 21.9961 11.7183 21.7572 11.7183 21.4212C11.7183 21.0852 11.9883 20.7801 12.3218 20.7391L19.4205 19.8675C19.754 19.8266 20.0239 20.0654 20.0239 20.4014C20.0239 20.7374 19.754 21.0426 19.4205 21.0835ZM26.0427 15.4384C26.0427 15.7744 25.7728 16.0636 25.4551 16.1026L12.3059 17.7171C11.9724 17.758 11.7183 17.5172 11.7183 17.1972V17.1652C11.7183 16.8292 11.9883 16.5401 12.3059 16.5011L25.4551 14.8866C25.7886 14.8456 26.0427 15.0864 26.0427 15.4064V15.4384Z" fill="url(#paint1_linear_113_4091)"/>
<path d="M13.2746 10.8302L24.6293 9.43597C25.1693 9.36967 25.5028 8.84872 25.5028 8.44872V5.72872C25.5028 5.18472 25.0899 4.89942 24.6293 4.95597L24.0894 5.02227C23.5494 5.08856 23.216 4.64951 23.216 4.24951C23.216 3.28951 22.4696 2.64516 21.5326 2.7602L16.5143 3.37637C15.5614 3.49337 14.8309 4.33506 14.8309 5.27906C14.8309 5.82306 14.418 6.20976 13.9575 6.26631L13.354 6.34041C12.8141 6.4067 12.4806 6.92765 12.4806 7.32765V10.0477C12.3853 10.6033 12.7982 10.8887 13.2746 10.8302ZM19.0234 4.66829C20.1033 4.53569 20.8497 5.32405 20.8497 6.34805C20.8497 7.58005 19.9763 8.35929 19.0234 8.47629C18.0706 8.59328 17.1972 7.82053 17.1972 6.79653C17.1972 5.77253 18.0706 4.78528 19.0234 4.66829ZM28.6154 4.86654L28.0755 4.93284C27.5355 4.99914 27.1226 5.38583 27.1226 5.92983V9.94583C27.1226 10.4898 26.7097 10.8765 26.2492 10.9331L11.6389 12.871C11.099 12.9373 10.7655 12.4982 10.7655 12.0982V8.08224C10.7655 7.53824 10.3526 7.25294 9.89202 7.30949L9.35207 7.37578C7.93868 7.40532 7.31934 8.44137 7.31934 9.67337V31.8814C7.31934 32.9054 8.27218 34.1484 9.54264 33.9924L28.2025 31.7012C29.2824 31.5686 30.4258 30.1963 30.4258 29.0443V6.67625C30.5211 5.65655 29.7747 4.7242 28.6154 4.86654ZM15.7679 25.884L12.3218 26.3071C11.9883 26.3481 11.7183 26.1092 11.7183 25.7732C11.7183 25.4372 11.9883 25.1321 12.3218 25.0912L15.7679 24.668C16.1014 24.6271 16.3714 24.8659 16.3714 25.2019C16.3714 25.5379 16.1014 25.8431 15.7679 25.884ZM19.4205 21.0835L12.3218 21.9552C11.9883 21.9961 11.7183 21.7572 11.7183 21.4212C11.7183 21.0852 11.9883 20.7801 12.3218 20.7391L19.4205 19.8675C19.754 19.8266 20.0239 20.0654 20.0239 20.4014C20.0239 20.7374 19.754 21.0426 19.4205 21.0835ZM26.0427 15.4384C26.0427 15.7744 25.7728 16.0636 25.4551 16.1026L12.3059 17.7171C11.9724 17.758 11.7183 17.5172 11.7183 17.1972V17.1652C11.7183 16.8292 11.9883 16.5401 12.3059 16.5011L25.4551 14.8866C25.7886 14.8456 26.0427 15.0864 26.0427 15.4064V15.4384Z" fill="url(#paint2_radial_113_4091)" fill-opacity="0.3"/>
<path d="M13.2746 10.8302L24.6293 9.43597C25.1693 9.36967 25.5028 8.84872 25.5028 8.44872V5.72872C25.5028 5.18472 25.0899 4.89942 24.6293 4.95597L24.0894 5.02227C23.5494 5.08856 23.216 4.64951 23.216 4.24951C23.216 3.28951 22.4696 2.64516 21.5326 2.7602L16.5143 3.37637C15.5614 3.49337 14.8309 4.33506 14.8309 5.27906C14.8309 5.82306 14.418 6.20976 13.9575 6.26631L13.354 6.34041C12.8141 6.4067 12.4806 6.92765 12.4806 7.32765V10.0477C12.3853 10.6033 12.7982 10.8887 13.2746 10.8302ZM19.0234 4.66829C20.1033 4.53569 20.8497 5.32405 20.8497 6.34805C20.8497 7.58005 19.9763 8.35929 19.0234 8.47629C18.0706 8.59328 17.1972 7.82053 17.1972 6.79653C17.1972 5.77253 18.0706 4.78528 19.0234 4.66829ZM28.6154 4.86654L28.0755 4.93284C27.5355 4.99914 27.1226 5.38583 27.1226 5.92983V9.94583C27.1226 10.4898 26.7097 10.8765 26.2492 10.9331L11.6389 12.871C11.099 12.9373 10.7655 12.4982 10.7655 12.0982V8.08224C10.7655 7.53824 10.3526 7.25294 9.89202 7.30949L9.35207 7.37578C7.93868 7.40532 7.31934 8.44137 7.31934 9.67337V31.8814C7.31934 32.9054 8.27218 34.1484 9.54264 33.9924L28.2025 31.7012C29.2824 31.5686 30.4258 30.1963 30.4258 29.0443V6.67625C30.5211 5.65655 29.7747 4.7242 28.6154 4.86654ZM15.7679 25.884L12.3218 26.3071C11.9883 26.3481 11.7183 26.1092 11.7183 25.7732C11.7183 25.4372 11.9883 25.1321 12.3218 25.0912L15.7679 24.668C16.1014 24.6271 16.3714 24.8659 16.3714 25.2019C16.3714 25.5379 16.1014 25.8431 15.7679 25.884ZM19.4205 21.0835L12.3218 21.9552C11.9883 21.9961 11.7183 21.7572 11.7183 21.4212C11.7183 21.0852 11.9883 20.7801 12.3218 20.7391L19.4205 19.8675C19.754 19.8266 20.0239 20.0654 20.0239 20.4014C20.0239 20.7374 19.754 21.0426 19.4205 21.0835ZM26.0427 15.4384C26.0427 15.7744 25.7728 16.0636 25.4551 16.1026L12.3059 17.7171C11.9724 17.758 11.7183 17.5172 11.7183 17.1972V17.1652C11.7183 16.8292 11.9883 16.5401 12.3059 16.5011L25.4551 14.8866C25.7886 14.8456 26.0427 15.0864 26.0427 15.4064V15.4384Z" fill="url(#paint3_linear_113_4091)" fill-opacity="0.8"/>
<path d="M12.9693 10.0745L12.9768 10.0305V9.98672V7.26672C12.9768 7.19773 13.0098 7.09047 13.0848 6.99673C13.1526 6.91196 13.2412 6.85426 13.354 6.84041L13.9575 6.76631C14.6618 6.67982 15.3272 6.0678 15.3272 5.21813C15.3272 4.54718 15.8386 3.95934 16.5143 3.87637L21.5326 3.2602C22.1985 3.17843 22.7197 3.62967 22.7197 4.31045C22.7197 4.9325 23.2246 5.62845 24.0894 5.52227L24.6293 5.45597C24.8461 5.42936 25.0065 5.55133 25.0065 5.78966V8.50966C25.0065 8.57864 24.9736 8.6859 24.8986 8.77964C24.8307 8.86441 24.7422 8.92211 24.6293 8.93597L13.2746 10.3302C13.1467 10.3459 13.0579 10.3113 13.0141 10.2726C12.9824 10.2445 12.9486 10.195 12.9693 10.0745ZM11.6389 13.371L11.6438 13.3704L26.2492 11.4331C26.2501 11.433 26.251 11.4329 26.2519 11.4327C26.9552 11.345 27.6189 10.7335 27.6189 9.8849V5.8689C27.6189 5.73345 27.666 5.64647 27.7252 5.58651C27.7907 5.52017 27.9056 5.45369 28.0755 5.43284L28.6154 5.36654C29.4457 5.26459 30.0029 5.92866 29.9318 6.68951L29.9295 6.71343V6.73719V29.1052C29.9295 29.5227 29.7157 30.0283 29.3572 30.4574C28.9962 30.8894 28.5625 31.157 28.2025 31.2012L9.54264 33.4924C9.09129 33.5478 8.66304 33.358 8.33182 33.0082C7.99665 32.6543 7.81561 32.192 7.81561 31.8204V9.61244C7.81561 9.07012 7.95307 8.64127 8.17671 8.36016C8.38317 8.10064 8.72281 7.89148 9.30214 7.87938L9.32704 7.87886L9.35207 7.87578L9.89202 7.80949C10.1087 7.78288 10.2692 7.90485 10.2692 8.14318V12.1592C10.2692 12.7812 10.7741 13.4772 11.6389 13.371ZM21.346 6.28711C21.346 5.02122 20.4102 3.99801 19.0234 4.16829C17.7857 4.32026 16.7009 5.56835 16.7009 6.85746C16.7009 8.14658 17.7857 9.12826 19.0234 8.97629C19.614 8.90377 20.1966 8.6237 20.6351 8.15143C21.0792 7.67317 21.346 7.02945 21.346 6.28711ZM12.3218 26.8071L15.7679 26.384C16.3755 26.3094 16.8676 25.7531 16.8676 25.141C16.8676 24.5288 16.3755 24.0934 15.7679 24.168L12.3218 24.5912C11.7142 24.6658 11.222 25.222 11.222 25.8342C11.222 26.4463 11.7142 26.8818 12.3218 26.8071ZM12.3218 22.4552L19.4205 21.5835C20.028 21.5089 20.5202 20.9526 20.5202 20.3405C20.5202 19.7284 20.028 19.2929 19.4205 19.3675L12.3218 20.2391C11.7142 20.3138 11.222 20.87 11.222 21.4822C11.222 22.0943 11.7142 22.5298 12.3218 22.4552ZM25.4551 16.6026C26.0381 16.531 26.539 15.9984 26.539 15.3775V15.3455C26.539 14.7582 26.0714 14.3109 25.4551 14.3866L12.3059 16.0011C11.723 16.0727 11.222 16.6053 11.222 17.2262V17.2582C11.222 17.8455 11.6896 18.2928 12.3059 18.2171L25.4551 16.6026Z" stroke="url(#paint4_linear_113_4091)"/>
</g>
</g>
<defs>
<filter id="filter0_di_113_4091" x="5.31934" y="0.746948" width="27.1147" height="37.2588" filterUnits="userSpaceOnUse" color-interpolation-filters="sRGB">
<feFlood flood-opacity="0" result="BackgroundImageFix"/>
<feColorMatrix in="SourceAlpha" type="matrix" values="0 0 0 0 0 0 0 0 0 0 0 0 0 0 0 0 0 0 127 0" result="hardAlpha"/>
<feOffset/>
<feGaussianBlur stdDeviation="1"/>
<feComposite in2="hardAlpha" operator="out"/>
<feColorMatrix type="matrix" values="0 0 0 0 0.275 0 0 0 0 1 0 0 0 0 0.78071 0 0 0 1 0"/>
<feBlend mode="normal" in2="BackgroundImageFix" result="effect1_dropShadow_113_4091"/>
<feBlend mode="normal" in="SourceGraphic" in2="effect1_dropShadow_113_4091" result="shape"/>
<feColorMatrix in="SourceAlpha" type="matrix" values="0 0 0 0 0 0 0 0 0 0 0 0 0 0 0 0 0 0 127 0" result="hardAlpha"/>
<feOffset dy="4"/>
<feGaussianBlur stdDeviation="2"/>
<feComposite in2="hardAlpha" operator="arithmetic" k2="-1" k3="1"/>
<feColorMatrix type="matrix" values="0 0 0 0 1 0 0 0 0 1 0 0 0 0 1 0 0 0 0.1 0"/>
<feBlend mode="normal" in2="shape" result="effect2_innerShadow_113_4091"/>
</filter>
<linearGradient id="paint0_linear_113_4091" x1="13.8745" y1="13.1434" x2="10.0692" y2="10.224" gradientUnits="userSpaceOnUse">
<stop stop-color="white" stop-opacity="0"/>
<stop offset="1" stop-color="white"/>
</linearGradient>
<linearGradient id="paint1_linear_113_4091" x1="12.4033" y1="6.52394" x2="28.9037" y2="26.7945" gradientUnits="userSpaceOnUse">
<stop stop-color="#29E2AA"/>
<stop offset="0.375" stop-color="#05F5AD"/>
<stop offset="1" stop-color="#37D9A8"/>
</linearGradient>
<radialGradient id="paint2_radial_113_4091" cx="0" cy="0" r="1" gradientUnits="userSpaceOnUse" gradientTransform="translate(19.7198 21.8851) rotate(-124.443) scale(12.9359 12.7436)">
<stop stop-color="white" stop-opacity="0"/>
<stop offset="1" stop-color="white"/>
</radialGradient>
<linearGradient id="paint3_linear_113_4091" x1="18.5004" y1="16.1009" x2="29.9309" y2="27.5187" gradientUnits="userSpaceOnUse">
<stop stop-color="#37D9A8" stop-opacity="0"/>
<stop offset="1" stop-color="#009366"/>
</linearGradient>
<linearGradient id="paint4_linear_113_4091" x1="15.2486" y1="7.23879" x2="33.5548" y2="24.9533" gradientUnits="userSpaceOnUse">
<stop stop-color="white"/>
<stop offset="1" stop-color="white" stop-opacity="0.51"/>
</linearGradient>
<clipPath id="clip0_113_4091">
<rect width="32" height="32" fill="white" transform="matrix(0.992546 -0.121869 0 1 0 3.99988)"/>
</clipPath>
<clipPath id="clip1_113_4091">
<rect width="32" height="32" fill="white" transform="matrix(0.992546 -0.121869 0 1 3 3.89978)"/>
</clipPath>
</defs>
</svg>
