<svg width="35" height="36" viewBox="0 0 35 36" fill="none" xmlns="http://www.w3.org/2000/svg">
<g clip-path="url(#clip0_113_4100)">
<path d="M29.1561 19.045L26.7988 17.5344C26.8236 17.2814 26.8484 17.0033 26.8484 16.7033C26.8484 16.4033 26.8236 16.1314 26.7988 15.8844L29.1561 13.795C29.8012 13.2158 29.9749 12.3194 29.5531 11.6212L26.9229 7.46918C26.6251 6.98074 26.0544 6.72581 25.4588 6.79894C25.2603 6.82331 25.0866 6.86964 24.8881 6.96901L22.0842 8.41329C21.6127 8.14618 21.1165 7.93211 20.6202 7.76805L20.1984 4.94484C20.0743 4.13508 19.3795 3.62039 18.5358 3.72397L13.2257 4.37598C12.3821 4.47956 11.6873 5.16487 11.5632 5.98011L11.1662 8.92885C10.6699 9.21479 10.1985 9.54768 9.70218 9.93361L6.89824 9.17789C6.69973 9.12727 6.50122 9.12664 6.30271 9.15101C5.70718 9.22414 5.13647 9.59421 4.86352 10.1527L2.20846 14.9787C1.78662 15.7305 1.96032 16.6342 2.60547 17.055L4.96277 18.5655C4.93796 18.8686 4.91314 19.1466 4.91314 19.3966C4.91314 19.6466 4.91314 19.9216 4.96277 20.2155L2.60547 22.305C1.96032 22.8842 1.78662 23.7805 2.20846 24.4787L4.8387 28.6308C5.13647 29.1192 5.70718 29.3741 6.30271 29.301C6.50122 29.2766 6.67491 29.2303 6.87342 29.1309L9.67737 27.6867C10.1488 27.9538 10.6451 28.1678 11.1414 28.3319L11.5632 31.1551C11.6625 31.9429 12.3821 32.4796 13.2257 32.376L18.5358 31.724C19.3795 31.6204 20.0743 30.9351 20.1984 30.1198L20.6202 27.168C21.1165 26.8821 21.5879 26.5492 22.0842 26.1633L24.8881 26.919C25.0866 26.9696 25.2852 26.9703 25.4837 26.9459C26.0792 26.8728 26.6499 26.5027 26.9229 25.9442L29.5779 21.0932C29.9749 20.3194 29.8012 19.4658 29.1561 19.045ZM21.8361 17.3188C21.8361 20.6188 19.1562 23.6478 15.8808 24.05C12.6054 24.4521 9.9255 22.0812 9.9255 18.7812C9.9255 15.4812 12.6054 12.4521 15.8808 12.05C19.1562 11.6478 21.8361 14.0188 21.8361 17.3188Z" fill="#02B780"/>
<path d="M29.1561 19.045L26.7988 17.5344C26.8236 17.2814 26.8484 17.0033 26.8484 16.7033C26.8484 16.4033 26.8236 16.1314 26.7988 15.8844L29.1561 13.795C29.8012 13.2158 29.9749 12.3194 29.5531 11.6212L26.9229 7.46918C26.6251 6.98074 26.0544 6.72581 25.4588 6.79894C25.2603 6.82331 25.0866 6.86964 24.8881 6.96901L22.0842 8.41329C21.6127 8.14618 21.1165 7.93211 20.6202 7.76805L20.1984 4.94484C20.0743 4.13508 19.3795 3.62039 18.5358 3.72397L13.2257 4.37598C12.3821 4.47956 11.6873 5.16487 11.5632 5.98011L11.1662 8.92885C10.6699 9.21479 10.1985 9.54768 9.70218 9.93361L6.89824 9.17789C6.69973 9.12727 6.50122 9.12664 6.30271 9.15101C5.70718 9.22414 5.13647 9.59421 4.86352 10.1527L2.20846 14.9787C1.78662 15.7305 1.96032 16.6342 2.60547 17.055L4.96277 18.5655C4.93796 18.8686 4.91314 19.1466 4.91314 19.3966C4.91314 19.6466 4.91314 19.9216 4.96277 20.2155L2.60547 22.305C1.96032 22.8842 1.78662 23.7805 2.20846 24.4787L4.8387 28.6308C5.13647 29.1192 5.70718 29.3741 6.30271 29.301C6.50122 29.2766 6.67491 29.2303 6.87342 29.1309L9.67737 27.6867C10.1488 27.9538 10.6451 28.1678 11.1414 28.3319L11.5632 31.1551C11.6625 31.9429 12.3821 32.4796 13.2257 32.376L18.5358 31.724C19.3795 31.6204 20.0743 30.9351 20.1984 30.1198L20.6202 27.168C21.1165 26.8821 21.5879 26.5492 22.0842 26.1633L24.8881 26.919C25.0866 26.9696 25.2852 26.9703 25.4837 26.9459C26.0792 26.8728 26.6499 26.5027 26.9229 25.9442L29.5779 21.0932C29.9749 20.3194 29.8012 19.4658 29.1561 19.045ZM21.8361 17.3188C21.8361 20.6188 19.1562 23.6478 15.8808 24.05C12.6054 24.4521 9.9255 22.0812 9.9255 18.7812C9.9255 15.4812 12.6054 12.4521 15.8808 12.05C19.1562 11.6478 21.8361 14.0188 21.8361 17.3188Z" fill="url(#paint0_linear_113_4100)" fill-opacity="0.2"/>
</g>
<g clip-path="url(#clip1_113_4100)">
<g filter="url(#filter0_di_113_4100)">
<path d="M32.1561 18.9449L29.7988 17.4343C29.8236 17.1813 29.8484 16.9032 29.8484 16.6032C29.8484 16.3032 29.8236 16.0313 29.7988 15.7843L32.1561 13.6949C32.8012 13.1157 32.9749 12.2193 32.5531 11.5211L29.9229 7.36908C29.6251 6.88064 29.0544 6.62572 28.4588 6.69884C28.2603 6.72321 28.0866 6.76954 27.8881 6.86891L25.0842 8.31319C24.6127 8.04608 24.1165 7.83202 23.6202 7.66795L23.1984 4.84475C23.0743 4.03498 22.3795 3.52029 21.5358 3.62388L16.2257 4.27588C15.3821 4.37947 14.6873 5.06478 14.5632 5.88001L14.1662 8.82876C13.6699 9.11469 13.1985 9.44758 12.7022 9.83351L9.89824 9.07779C9.69973 9.02717 9.50122 9.02654 9.30271 9.05092C8.70718 9.12404 8.13647 9.49411 7.86352 10.0526L5.20846 14.8786C4.78662 15.6304 4.96032 16.5341 5.60547 16.9549L7.96277 18.4654C7.93796 18.7685 7.91314 19.0465 7.91314 19.2965C7.91314 19.5465 7.91314 19.8215 7.96277 20.1154L5.60547 22.2049C4.96032 22.7841 4.78662 23.6804 5.20846 24.3786L7.8387 28.5307C8.13647 29.0191 8.70718 29.274 9.30271 29.2009C9.50122 29.1765 9.67491 29.1302 9.87342 29.0308L12.6774 27.5866C13.1488 27.8537 13.6451 28.0677 14.1414 28.2318L14.5632 31.055C14.6625 31.8428 15.3821 32.3795 16.2257 32.2759L21.5358 31.6239C22.3795 31.5203 23.0743 30.835 23.1984 30.0197L23.6202 27.068C24.1165 26.782 24.5879 26.4491 25.0842 26.0632L27.8881 26.8189C28.0866 26.8695 28.2852 26.8702 28.4837 26.8458C29.0792 26.7727 29.6499 26.4026 29.9229 25.8441L32.5779 20.9931C32.9749 20.2193 32.8012 19.3657 32.1561 18.9449ZM24.8361 17.2187C24.8361 20.5187 22.1562 23.5477 18.8808 23.9499C15.6054 24.352 12.9255 21.9811 12.9255 18.6811C12.9255 15.3811 15.6054 12.352 18.8808 11.9499C22.1562 11.5477 24.8361 13.9187 24.8361 17.2187Z" fill="url(#paint1_linear_113_4100)"/>
<path d="M32.1561 18.9449L29.7988 17.4343C29.8236 17.1813 29.8484 16.9032 29.8484 16.6032C29.8484 16.3032 29.8236 16.0313 29.7988 15.7843L32.1561 13.6949C32.8012 13.1157 32.9749 12.2193 32.5531 11.5211L29.9229 7.36908C29.6251 6.88064 29.0544 6.62572 28.4588 6.69884C28.2603 6.72321 28.0866 6.76954 27.8881 6.86891L25.0842 8.31319C24.6127 8.04608 24.1165 7.83202 23.6202 7.66795L23.1984 4.84475C23.0743 4.03498 22.3795 3.52029 21.5358 3.62388L16.2257 4.27588C15.3821 4.37947 14.6873 5.06478 14.5632 5.88001L14.1662 8.82876C13.6699 9.11469 13.1985 9.44758 12.7022 9.83351L9.89824 9.07779C9.69973 9.02717 9.50122 9.02654 9.30271 9.05092C8.70718 9.12404 8.13647 9.49411 7.86352 10.0526L5.20846 14.8786C4.78662 15.6304 4.96032 16.5341 5.60547 16.9549L7.96277 18.4654C7.93796 18.7685 7.91314 19.0465 7.91314 19.2965C7.91314 19.5465 7.91314 19.8215 7.96277 20.1154L5.60547 22.2049C4.96032 22.7841 4.78662 23.6804 5.20846 24.3786L7.8387 28.5307C8.13647 29.0191 8.70718 29.274 9.30271 29.2009C9.50122 29.1765 9.67491 29.1302 9.87342 29.0308L12.6774 27.5866C13.1488 27.8537 13.6451 28.0677 14.1414 28.2318L14.5632 31.055C14.6625 31.8428 15.3821 32.3795 16.2257 32.2759L21.5358 31.6239C22.3795 31.5203 23.0743 30.835 23.1984 30.0197L23.6202 27.068C24.1165 26.782 24.5879 26.4491 25.0842 26.0632L27.8881 26.8189C28.0866 26.8695 28.2852 26.8702 28.4837 26.8458C29.0792 26.7727 29.6499 26.4026 29.9229 25.8441L32.5779 20.9931C32.9749 20.2193 32.8012 19.3657 32.1561 18.9449ZM24.8361 17.2187C24.8361 20.5187 22.1562 23.5477 18.8808 23.9499C15.6054 24.352 12.9255 21.9811 12.9255 18.6811C12.9255 15.3811 15.6054 12.352 18.8808 11.9499C22.1562 11.5477 24.8361 13.9187 24.8361 17.2187Z" fill="url(#paint2_radial_113_4100)" fill-opacity="0.3"/>
<path d="M32.1561 18.9449L29.7988 17.4343C29.8236 17.1813 29.8484 16.9032 29.8484 16.6032C29.8484 16.3032 29.8236 16.0313 29.7988 15.7843L32.1561 13.6949C32.8012 13.1157 32.9749 12.2193 32.5531 11.5211L29.9229 7.36908C29.6251 6.88064 29.0544 6.62572 28.4588 6.69884C28.2603 6.72321 28.0866 6.76954 27.8881 6.86891L25.0842 8.31319C24.6127 8.04608 24.1165 7.83202 23.6202 7.66795L23.1984 4.84475C23.0743 4.03498 22.3795 3.52029 21.5358 3.62388L16.2257 4.27588C15.3821 4.37947 14.6873 5.06478 14.5632 5.88001L14.1662 8.82876C13.6699 9.11469 13.1985 9.44758 12.7022 9.83351L9.89824 9.07779C9.69973 9.02717 9.50122 9.02654 9.30271 9.05092C8.70718 9.12404 8.13647 9.49411 7.86352 10.0526L5.20846 14.8786C4.78662 15.6304 4.96032 16.5341 5.60547 16.9549L7.96277 18.4654C7.93796 18.7685 7.91314 19.0465 7.91314 19.2965C7.91314 19.5465 7.91314 19.8215 7.96277 20.1154L5.60547 22.2049C4.96032 22.7841 4.78662 23.6804 5.20846 24.3786L7.8387 28.5307C8.13647 29.0191 8.70718 29.274 9.30271 29.2009C9.50122 29.1765 9.67491 29.1302 9.87342 29.0308L12.6774 27.5866C13.1488 27.8537 13.6451 28.0677 14.1414 28.2318L14.5632 31.055C14.6625 31.8428 15.3821 32.3795 16.2257 32.2759L21.5358 31.6239C22.3795 31.5203 23.0743 30.835 23.1984 30.0197L23.6202 27.068C24.1165 26.782 24.5879 26.4491 25.0842 26.0632L27.8881 26.8189C28.0866 26.8695 28.2852 26.8702 28.4837 26.8458C29.0792 26.7727 29.6499 26.4026 29.9229 25.8441L32.5779 20.9931C32.9749 20.2193 32.8012 19.3657 32.1561 18.9449ZM24.8361 17.2187C24.8361 20.5187 22.1562 23.5477 18.8808 23.9499C15.6054 24.352 12.9255 21.9811 12.9255 18.6811C12.9255 15.3811 15.6054 12.352 18.8808 11.9499C22.1562 11.5477 24.8361 13.9187 24.8361 17.2187Z" fill="url(#paint3_linear_113_4100)" fill-opacity="0.8"/>
<path d="M29.305 17.4452L29.2773 17.7275L29.499 17.8696L31.8535 19.3783C31.8539 19.3786 31.8543 19.3789 31.8548 19.3792C32.2984 19.6695 32.4235 20.2526 32.1466 20.7985L29.4956 25.6421L29.4892 25.6539L29.4832 25.6661C29.3088 26.0229 28.9241 26.2917 28.4837 26.3458C28.3282 26.3649 28.1927 26.3622 28.065 26.33L25.2643 25.5752L25.0271 25.5112L24.8137 25.6772C24.3303 26.0532 23.8819 26.3688 23.4165 26.637L23.1686 26.7799L23.1292 27.0557L22.708 30.0028C22.7079 30.0035 22.7078 30.0042 22.7077 30.0049C22.6215 30.5642 22.1412 31.0495 21.5358 31.1239L16.2257 31.7759C15.6178 31.8505 15.1221 31.4599 15.0556 30.9325L15.0558 30.9325L15.0541 30.9216L14.6323 28.0984L14.5926 27.8327L14.345 27.7508C13.8735 27.5949 13.4031 27.3919 12.9576 27.1395L12.7414 27.017L12.4973 27.1427L9.69649 28.5854C9.56348 28.6517 9.45067 28.6827 9.30271 28.7009C8.88115 28.7527 8.47697 28.5699 8.26959 28.2297L8.26964 28.2297L8.26572 28.2235L5.63805 24.0755C5.3367 23.5728 5.46691 22.961 5.90681 22.5652C5.90722 22.5648 5.90764 22.5644 5.90806 22.564L8.26253 20.4771L8.50161 20.2652L8.45229 19.9731C8.4103 19.7245 8.40942 19.4885 8.40942 19.2356C8.40942 19.0286 8.42845 18.7973 8.45153 18.5169C8.45344 18.4937 8.45537 18.4701 8.45733 18.4462L8.47999 18.1695L8.26253 18.0301L5.90806 16.5214C5.90762 16.5211 5.90718 16.5208 5.90674 16.5206C5.46206 16.2294 5.34316 15.602 5.63266 15.086L5.63505 15.0817L8.29011 10.2557L8.29693 10.2433L8.30313 10.2307C8.47754 9.87378 8.86227 9.605 9.30271 9.55092C9.45815 9.53183 9.59367 9.53455 9.72137 9.56669L12.5221 10.3215L12.7593 10.3855L12.9726 10.2195C13.4561 9.84355 13.9044 9.52786 14.3698 9.25971L14.6203 9.11542L14.6578 8.83671L15.0542 5.89289C15.1411 5.33445 15.621 4.85012 16.2257 4.77588L21.5358 4.12388C22.1375 4.05 22.6205 4.41327 22.7076 4.9791C22.7076 4.97937 22.7076 4.97963 22.7077 4.9799L23.1292 7.80135L23.169 8.06707L23.4165 8.14892C23.8881 8.30481 24.3585 8.50786 24.804 8.76026L25.0202 8.88275L25.2643 8.75701L28.065 7.31437C28.1981 7.2481 28.3109 7.21701 28.4588 7.19884C28.8804 7.14708 29.2846 7.32988 29.492 7.67006L29.4919 7.67009L29.4958 7.67628L32.1235 11.8242C32.4248 12.3269 32.2947 12.9386 31.8548 13.3345C31.8544 13.3349 31.8539 13.3353 31.8535 13.3357L29.499 15.4226L29.2773 15.6192L29.305 15.8947C29.3296 16.1395 29.3521 16.3907 29.3521 16.6642C29.3521 16.9376 29.3296 17.1944 29.305 17.4452ZM18.8808 24.4499C22.4303 24.0141 25.3323 20.7339 25.3323 17.1577C25.3323 13.5816 22.4303 11.0141 18.8808 11.4499C15.3313 11.8857 12.4292 15.1659 12.4292 18.742C12.4292 22.3182 15.3313 24.8857 18.8808 24.4499Z" stroke="url(#paint4_linear_113_4100)"/>
</g>
</g>
<defs>
<filter id="filter0_di_113_4100" x="2.97852" y="1.61072" width="31.811" height="34.678" filterUnits="userSpaceOnUse" color-interpolation-filters="sRGB">
<feFlood flood-opacity="0" result="BackgroundImageFix"/>
<feColorMatrix in="SourceAlpha" type="matrix" values="0 0 0 0 0 0 0 0 0 0 0 0 0 0 0 0 0 0 127 0" result="hardAlpha"/>
<feOffset/>
<feGaussianBlur stdDeviation="1"/>
<feComposite in2="hardAlpha" operator="out"/>
<feColorMatrix type="matrix" values="0 0 0 0 0.275 0 0 0 0 1 0 0 0 0 0.78071 0 0 0 1 0"/>
<feBlend mode="normal" in2="BackgroundImageFix" result="effect1_dropShadow_113_4100"/>
<feBlend mode="normal" in="SourceGraphic" in2="effect1_dropShadow_113_4100" result="shape"/>
<feColorMatrix in="SourceAlpha" type="matrix" values="0 0 0 0 0 0 0 0 0 0 0 0 0 0 0 0 0 0 127 0" result="hardAlpha"/>
<feOffset dy="4"/>
<feGaussianBlur stdDeviation="2"/>
<feComposite in2="hardAlpha" operator="arithmetic" k2="-1" k3="1"/>
<feColorMatrix type="matrix" values="0 0 0 0 1 0 0 0 0 1 0 0 0 0 1 0 0 0 0.1 0"/>
<feBlend mode="normal" in2="shape" result="effect2_innerShadow_113_4100"/>
</filter>
<linearGradient id="paint0_linear_113_4100" x1="13.475" y1="13.4822" x2="9.77203" y2="9.94219" gradientUnits="userSpaceOnUse">
<stop stop-color="white" stop-opacity="0"/>
<stop offset="1" stop-color="white"/>
</linearGradient>
<linearGradient id="paint1_linear_113_4100" x1="11.0955" y1="7.3923" x2="25.7018" y2="29.4127" gradientUnits="userSpaceOnUse">
<stop stop-color="#29E2AA"/>
<stop offset="0.375" stop-color="#05F5AD"/>
<stop offset="1" stop-color="#37D9A8"/>
</linearGradient>
<radialGradient id="paint2_radial_113_4100" cx="0" cy="0" r="1" gradientUnits="userSpaceOnUse" gradientTransform="translate(19.8984 21.6093) rotate(-131.927) scale(13.1743 14.165)">
<stop stop-color="white" stop-opacity="0"/>
<stop offset="1" stop-color="white"/>
</radialGradient>
<linearGradient id="paint3_linear_113_4100" x1="18.4312" y1="16.2065" x2="28.9504" y2="29.1991" gradientUnits="userSpaceOnUse">
<stop stop-color="#37D9A8" stop-opacity="0"/>
<stop offset="1" stop-color="#009366"/>
</linearGradient>
<linearGradient id="paint4_linear_113_4100" x1="14.5188" y1="7.97323" x2="31.4748" y2="28.2829" gradientUnits="userSpaceOnUse">
<stop stop-color="white"/>
<stop offset="1" stop-color="white" stop-opacity="0.51"/>
</linearGradient>
<clipPath id="clip0_113_4100">
<rect width="32" height="32" fill="white" transform="matrix(0.992546 -0.121869 0 1 0 3.99988)"/>
</clipPath>
<clipPath id="clip1_113_4100">
<rect width="32" height="32" fill="white" transform="matrix(0.992546 -0.121869 0 1 3 3.89978)"/>
</clipPath>
</defs>
</svg>
