<svg width="35" height="34" viewBox="0 0 35 34" fill="none" xmlns="http://www.w3.org/2000/svg">
<g filter="url(#filter0_d_117_82)">
<path d="M32.4067 8.72872C32.472 8.84261 32.5143 8.96829 32.5309 9.09855C32.5475 9.22881 32.5382 9.36108 32.5035 9.48773C32.4688 9.61438 32.4094 9.73292 32.3288 9.83654C32.2481 9.94015 32.1477 10.0268 32.0334 10.0915L28.8143 11.9492L27.823 10.2151L30.9207 8.35736C31.1546 8.25637 31.4095 8.21378 31.6635 8.23326C31.8144 8.26145 31.958 8.31987 32.0857 8.40502C32.2134 8.49017 32.3226 8.60028 32.4067 8.72872ZM2.92171 8.72872C3.06866 8.50012 3.28607 8.3261 3.54126 8.23326C3.66603 8.19297 3.79865 8.1832 3.92797 8.2048C4.05729 8.22639 4.17955 8.27871 4.28445 8.35736L7.38224 10.2151L6.39085 11.9492L3.29353 10.0915C3.17925 10.0268 3.07889 9.94015 2.99821 9.83654C2.91754 9.73292 2.85815 9.61438 2.82346 9.48773C2.78878 9.36108 2.77948 9.22881 2.7961 9.09855C2.81272 8.96829 2.85493 8.84261 2.92031 8.72872H2.92171ZM9.11635 2.53548C9.35034 2.43445 9.60541 2.39186 9.85953 2.41138C10.1149 2.50399 10.3326 2.67811 10.4791 2.90684L12.3378 6.0037L10.6032 6.99461L8.74499 3.89776C8.67968 3.7839 8.63753 3.65825 8.62094 3.52803C8.60436 3.39782 8.61368 3.26562 8.64837 3.13902C8.68305 3.01243 8.74242 2.89393 8.82305 2.79035C8.90368 2.68678 9.00399 2.60016 9.11821 2.53548H9.11635ZM17.778 0.138428C18.0689 0.138805 18.35 0.243321 18.5704 0.433051C18.7909 0.622781 18.9361 0.88518 18.9798 1.17273V4.76505H16.6649V1.17273C16.5408 0.677275 17.1585 0.138428 17.778 0.138428ZM26.0898 2.53548C26.204 2.60016 26.3043 2.68678 26.385 2.79035C26.4656 2.89393 26.525 3.01243 26.5596 3.13902C26.5943 3.26562 26.6036 3.39782 26.5871 3.52803C26.5705 3.65825 26.5283 3.7839 26.463 3.89776L24.6048 6.99461L22.8702 6.0037L24.7284 2.90684C24.9028 2.7051 25.1129 2.53716 25.348 2.41138C25.5957 2.41138 25.9676 2.41138 26.0912 2.53548H26.0898ZM18.4069 11.6996L13.3273 20.1066H17.4155L16.4241 26.0735L21.7464 17.7944H17.4155L18.4069 11.6996ZM9.48677 27.5468H7.36171V17.7692C7.41163 12.1237 12.0182 7.58198 17.6637 7.6123C18.9985 7.60786 20.3211 7.86757 21.5551 8.37645C22.7891 8.88533 23.9103 9.63334 24.854 10.5774C25.7977 11.5214 26.5453 12.6429 27.0537 13.8771C27.5621 15.1113 27.8214 16.4339 27.8164 17.7688V27.5464H9.48677V27.5468ZM3.91169 27.5468H31.5408C31.8484 27.5728 32.1346 27.7146 32.3416 27.9436C32.5486 28.1726 32.6609 28.4717 32.6558 28.7804C32.6563 28.9269 32.6278 29.0721 32.5719 29.2076C32.5161 29.3431 32.4339 29.4663 32.3303 29.5699C32.2267 29.6735 32.1036 29.7556 31.9681 29.8115C31.8326 29.8674 31.6873 29.8959 31.5408 29.8954H3.91262C3.76603 29.896 3.62076 29.8676 3.4852 29.8118C3.34964 29.7559 3.22647 29.6738 3.12281 29.5702C3.01915 29.4665 2.93704 29.3433 2.88123 29.2078C2.82541 29.0722 2.79699 28.927 2.79761 28.7804C2.79249 28.4717 2.90479 28.1726 3.11179 27.9436C3.31879 27.7146 3.60503 27.5728 3.91262 27.5468" fill="url(#paint0_linear_117_82)"/>
</g>
<defs>
<filter id="filter0_d_117_82" x="0.788086" y="0.138428" width="33.8677" height="33.757" filterUnits="userSpaceOnUse" color-interpolation-filters="sRGB">
<feFlood flood-opacity="0" result="BackgroundImageFix"/>
<feColorMatrix in="SourceAlpha" type="matrix" values="0 0 0 0 0 0 0 0 0 0 0 0 0 0 0 0 0 0 127 0" result="hardAlpha"/>
<feOffset dy="2"/>
<feGaussianBlur stdDeviation="1"/>
<feComposite in2="hardAlpha" operator="out"/>
<feColorMatrix type="matrix" values="0 0 0 0 0 0 0 0 0 0.2625 0 0 0 0 0.183203 0 0 0 1 0"/>
<feBlend mode="normal" in2="BackgroundImageFix" result="effect1_dropShadow_117_82"/>
<feBlend mode="normal" in="SourceGraphic" in2="effect1_dropShadow_117_82" result="shape"/>
</filter>
<linearGradient id="paint0_linear_117_82" x1="17.722" y1="0.138428" x2="17.722" y2="29.8954" gradientUnits="userSpaceOnUse">
<stop stop-color="white"/>
<stop offset="1" stop-color="#4DFFAA"/>
</linearGradient>
</defs>
</svg>
