<svg width="32" height="35" viewBox="0 0 32 35" fill="none" xmlns="http://www.w3.org/2000/svg">
<g filter="url(#filter0_d_117_101)">
<path d="M28.4495 3.87814C26.2679 4.3358 23.8785 4.43513 21.7497 3.72623C19.7238 3.11812 17.9576 1.85078 16.3481 0.535719C16.2917 0.480403 16.2183 0.444811 16.1392 0.434448C16.1066 0.436992 16.0752 0.447625 16.0479 0.465344C16.0207 0.483062 15.9985 0.507283 15.9835 0.535719C13.023 3.72672 8.14071 4.89133 3.93382 3.87862C2.949 3.67608 2.37601 4.89133 2.53169 5.70198C2.89384 10.1155 3.57077 14.4988 4.55755 18.8199C5.233 21.2509 6.0114 23.7325 7.67367 25.7078C8.76443 27.0248 10.3745 27.8355 11.8806 28.595C13.231 29.2532 14.5296 30.0634 15.984 30.5703C16.0479 30.6035 16.1192 30.6209 16.1916 30.6209C16.2641 30.6209 16.3354 30.6035 16.3993 30.5703C18.1065 29.8519 19.7713 29.0403 21.3856 28.1393C22.9722 27.4215 24.3348 26.3027 25.3328 24.8981C27.0986 22.2135 27.8257 19.0731 28.449 16.0345C29.1237 12.5522 29.592 9.03467 29.8516 5.49944C29.955 4.68879 29.3318 3.72672 28.449 3.87814H28.4495ZM11.5682 21.0455H9.43839C9.30517 21.0438 9.17363 21.0161 9.05149 20.964C8.92935 20.912 8.81907 20.8365 8.72713 20.7421C8.63529 20.6479 8.56375 20.5365 8.51675 20.4146C8.46976 20.2928 8.44827 20.1629 8.45357 20.0328C8.45203 19.772 8.55376 19.5209 8.7374 19.332C8.92104 19.1432 9.1723 19.0314 9.43839 19.02H11.5677C11.7011 19.0216 11.8328 19.0492 11.9551 19.1013C12.0775 19.1534 12.1879 19.2289 12.28 19.3234C12.4655 19.5142 12.5635 19.7703 12.553 20.0328C12.5546 20.2935 12.4528 20.5446 12.2692 20.7335C12.0855 20.9223 11.8343 21.0341 11.5682 21.0455ZM8.39985 15.0715C8.39818 14.8107 8.49986 14.5594 8.68351 14.3704C8.86717 14.1815 9.11849 14.0696 9.38467 14.0583H16.7097C16.843 14.0599 16.9747 14.0876 17.0969 14.1398C17.2191 14.192 17.3295 14.2676 17.4214 14.3621C17.607 14.5529 17.7054 14.8085 17.695 15.0715C17.6965 15.3322 17.5948 15.5833 17.4112 15.7722C17.2275 15.961 16.9763 16.0728 16.7102 16.0842H9.38616C8.84849 16.0257 8.43268 15.5978 8.40134 15.0715H8.39935H8.39985ZM23.6696 17.6544L18.9434 22.6687C18.7793 22.8674 18.5291 22.9793 18.268 22.9725C18.0183 22.9746 17.777 22.8841 17.5925 22.7193L14.9962 20.0853C14.8216 19.9102 14.7247 19.6747 14.7265 19.4299C14.7284 19.1852 14.8289 18.9511 15.0061 18.7786C15.1838 18.6057 15.4236 18.5078 15.6741 18.506C15.9246 18.5042 16.1658 18.5985 16.3461 18.7688L18.2695 20.6934L22.3207 16.388C22.4955 16.2104 22.7337 16.1059 22.9855 16.0965C23.2372 16.087 23.4829 16.1733 23.6711 16.3373C24.0088 16.7142 24.0088 17.277 23.6711 17.6539L23.6696 17.6544ZM22.9424 11.0684H9.43839C9.16352 11.0687 8.89974 10.9623 8.705 10.7724C8.51026 10.5825 8.40051 10.3247 8.39985 10.0556C8.39985 9.49574 8.8649 9.04197 9.43839 9.04197H22.9424C23.2173 9.04196 23.4811 9.14857 23.6759 9.33846C23.8707 9.52834 23.9808 9.78604 23.9819 10.0552C23.9862 10.1896 23.9622 10.3234 23.9114 10.4483C23.8607 10.5733 23.7843 10.6867 23.687 10.7816C23.49 10.9739 23.2209 11.0786 22.9424 11.0703V11.0684Z" fill="url(#paint0_linear_117_101)"/>
</g>
<defs>
<filter id="filter0_d_117_101" x="0.506348" y="0.434448" width="31.3564" height="34.1864" filterUnits="userSpaceOnUse" color-interpolation-filters="sRGB">
<feFlood flood-opacity="0" result="BackgroundImageFix"/>
<feColorMatrix in="SourceAlpha" type="matrix" values="0 0 0 0 0 0 0 0 0 0 0 0 0 0 0 0 0 0 127 0" result="hardAlpha"/>
<feOffset dy="2"/>
<feGaussianBlur stdDeviation="1"/>
<feComposite in2="hardAlpha" operator="out"/>
<feColorMatrix type="matrix" values="0 0 0 0 0 0 0 0 0 0.2625 0 0 0 0 0.183203 0 0 0 1 0"/>
<feBlend mode="normal" in2="BackgroundImageFix" result="effect1_dropShadow_117_101"/>
<feBlend mode="normal" in="SourceGraphic" in2="effect1_dropShadow_117_101" result="shape"/>
</filter>
<linearGradient id="paint0_linear_117_101" x1="16.1846" y1="0.434448" x2="16.1846" y2="30.6209" gradientUnits="userSpaceOnUse">
<stop stop-color="white"/>
<stop offset="1" stop-color="#4DFFAA"/>
</linearGradient>
</defs>
</svg>
