<svg width="2560" height="66" viewBox="0 0 2560 66" fill="none" xmlns="http://www.w3.org/2000/svg">
<path d="M684 68H1876H2560V62L2545 46H1733.96C1728.71 46 1723.51 44.9391 1718.68 42.8809L1633.02 6.39809C1623.11 2.17622 1612.45 0 1601.67 0H1280H958.327C947.554 0 936.891 2.17621 926.978 6.39808L841.323 42.8809C836.491 44.9391 831.293 46 826.04 46H15L0 62V68H684Z" fill="url(#paint0_linear_136_31)"/>
<path d="M684 68H1876H2560V62L2545 46H1733.96C1728.71 46 1723.51 44.9391 1718.68 42.8809L1633.02 6.39809C1623.11 2.17622 1612.45 0 1601.67 0H1280H958.327C947.554 0 936.891 2.17621 926.978 6.39808L841.323 42.8809C836.491 44.9391 831.293 46 826.04 46H15L0 62V68H684Z" fill="url(#paint1_linear_136_31)"/>
<path d="M0 66V56L10 66H0Z" fill="#D39900"/>
<path d="M2560 66V56L2550 66H2560Z" fill="#D39900"/>
<path d="M2536 41L1749 41.0001" stroke="url(#paint2_linear_136_31)" stroke-width="2"/>
<rect x="1731" y="40" width="14" height="2" fill="#D39900"/>
<path d="M24 41L811 41.0001" stroke="url(#paint3_linear_136_31)" stroke-width="2"/>
<rect width="14" height="2" transform="matrix(-1 0 0 1 829 40)" fill="#D39900"/>
<defs>
<linearGradient id="paint0_linear_136_31" x1="0" y1="62.5" x2="2560" y2="62.5" gradientUnits="userSpaceOnUse">
<stop stop-color="#0C4836" stop-opacity="0.2"/>
<stop offset="0.519834" stop-color="#0C4836" stop-opacity="0.4"/>
<stop offset="1" stop-color="#0C4836" stop-opacity="0.2"/>
</linearGradient>
<linearGradient id="paint1_linear_136_31" x1="1280" y1="165" x2="1280" y2="-40" gradientUnits="userSpaceOnUse">
<stop offset="0.53382" stop-color="#0C4836" stop-opacity="0"/>
<stop offset="0.807527" stop-color="#0E946B" stop-opacity="0.6"/>
</linearGradient>
<linearGradient id="paint2_linear_136_31" x1="1749" y1="40.5001" x2="2536" y2="40.5" gradientUnits="userSpaceOnUse">
<stop stop-color="#106149"/>
<stop offset="1" stop-color="#106149" stop-opacity="0"/>
</linearGradient>
<linearGradient id="paint3_linear_136_31" x1="811" y1="40.5001" x2="24" y2="40.5" gradientUnits="userSpaceOnUse">
<stop stop-color="#106149"/>
<stop offset="1" stop-color="#106149" stop-opacity="0"/>
</linearGradient>
</defs>
</svg>
