<svg width="78" height="67" viewBox="0 0 78 67" fill="none" xmlns="http://www.w3.org/2000/svg">
<g filter="url(#filter0_d_105_1831)">
<ellipse cx="41.3569" cy="46.1215" rx="32.5942" ry="6.65189" fill="#22B085" fill-opacity="0.3" shape-rendering="crispEdges"/>
<path d="M73.4512 46.1215C73.4512 46.4026 73.3138 46.7311 72.9359 47.1081C72.5567 47.4862 71.9712 47.875 71.1725 48.2604C69.5773 49.03 67.237 49.7367 64.3046 50.3352C58.4479 51.5304 50.3345 52.2734 41.3569 52.2734C32.3794 52.2734 24.2659 51.5304 18.4093 50.3352C15.4769 49.7367 13.1365 49.03 11.5414 48.2604C10.7427 47.875 10.1572 47.4862 9.77797 47.1081C9.40005 46.7311 9.2627 46.4026 9.2627 46.1215C9.2627 45.8404 9.40005 45.5118 9.77797 45.1349C10.1572 44.7568 10.7427 44.368 11.5414 43.9826C13.1365 43.2129 15.4769 42.5063 18.4093 41.9078C24.2659 40.7126 32.3794 39.9696 41.3569 39.9696C50.3345 39.9696 58.4479 40.7126 64.3046 41.9078C67.237 42.5063 69.5773 43.2129 71.1725 43.9826C71.9712 44.368 72.5567 44.7568 72.9359 45.1349C73.3138 45.5118 73.4512 45.8404 73.4512 46.1215Z" stroke="url(#paint0_linear_105_1831)" shape-rendering="crispEdges"/>
</g>
<path d="M66.7993 40.1349C66.7993 40.3251 66.7075 40.5642 66.4182 40.8542C66.1276 41.1456 65.6727 41.4507 65.0424 41.7564C63.784 42.3666 61.9309 42.9299 59.6005 43.4079C54.9478 44.3623 48.4974 44.9564 41.3569 44.9564C34.2164 44.9564 27.766 44.3623 23.1134 43.4079C20.7829 42.9299 18.9298 42.3666 17.6714 41.7564C17.0411 41.4507 16.5863 41.1456 16.2956 40.8542C16.0063 40.5642 15.9146 40.3251 15.9146 40.1349C15.9146 39.9446 16.0063 39.7055 16.2956 39.4155C16.5863 39.1241 17.0411 38.819 17.6714 38.5134C18.9298 37.9031 20.7829 37.3398 23.1134 36.8618C27.766 35.9074 34.2164 35.3134 41.3569 35.3134C48.4974 35.3134 54.9478 35.9074 59.6005 36.8618C61.9309 37.3398 63.784 37.9031 65.0424 38.5134C65.6727 38.819 66.1276 39.1241 66.4182 39.4155C66.7075 39.7055 66.7993 39.9446 66.7993 40.1349Z" fill="url(#paint1_linear_105_1831)" fill-opacity="0.4"/>
<path d="M66.7993 40.1349C66.7993 40.3251 66.7075 40.5642 66.4182 40.8542C66.1276 41.1456 65.6727 41.4507 65.0424 41.7564C63.784 42.3666 61.9309 42.9299 59.6005 43.4079C54.9478 44.3623 48.4974 44.9564 41.3569 44.9564C34.2164 44.9564 27.766 44.3623 23.1134 43.4079C20.7829 42.9299 18.9298 42.3666 17.6714 41.7564C17.0411 41.4507 16.5863 41.1456 16.2956 40.8542C16.0063 40.5642 15.9146 40.3251 15.9146 40.1349C15.9146 39.9446 16.0063 39.7055 16.2956 39.4155C16.5863 39.1241 17.0411 38.819 17.6714 38.5134C18.9298 37.9031 20.7829 37.3398 23.1134 36.8618C27.766 35.9074 34.2164 35.3134 41.3569 35.3134C48.4974 35.3134 54.9478 35.9074 59.6005 36.8618C61.9309 37.3398 63.784 37.9031 65.0424 38.5134C65.6727 38.819 66.1276 39.1241 66.4182 39.4155C66.7075 39.7055 66.7993 39.9446 66.7993 40.1349Z" stroke="url(#paint2_linear_105_1831)"/>
<path d="M66.7993 40.1349C66.7993 40.3251 66.7075 40.5642 66.4182 40.8542C66.1276 41.1456 65.6727 41.4507 65.0424 41.7564C63.784 42.3666 61.9309 42.9299 59.6005 43.4079C54.9478 44.3623 48.4974 44.9564 41.3569 44.9564C34.2164 44.9564 27.766 44.3623 23.1134 43.4079C20.7829 42.9299 18.9298 42.3666 17.6714 41.7564C17.0411 41.4507 16.5863 41.1456 16.2956 40.8542C16.0063 40.5642 15.9146 40.3251 15.9146 40.1349C15.9146 39.9446 16.0063 39.7055 16.2956 39.4155C16.5863 39.1241 17.0411 38.819 17.6714 38.5134C18.9298 37.9031 20.7829 37.3398 23.1134 36.8618C27.766 35.9074 34.2164 35.3134 41.3569 35.3134C48.4974 35.3134 54.9478 35.9074 59.6005 36.8618C61.9309 37.3398 63.784 37.9031 65.0424 38.5134C65.6727 38.819 66.1276 39.1241 66.4182 39.4155C66.7075 39.7055 66.7993 39.9446 66.7993 40.1349Z" stroke="url(#paint3_linear_105_1831)" stroke-opacity="0.8"/>
<g filter="url(#filter1_ddi_105_1831)">
<path d="M47.2512 18.3535C45.0912 22.4896 44.2323 32.1829 44.0203 37.8399C43.9895 38.6624 43.7928 39.3171 42.9697 39.3171C42.1348 39.3171 40.9864 38.6375 40.9654 37.8029C40.7789 30.4048 39.2151 27.2342 37.522 26.0035C37.2144 25.7798 36.7967 25.8301 36.4909 26.0562C24.4239 34.9751 14.9236 34.3055 6.39408 32.6652C-2.25337 31.0023 0.0747862 26.6785 6.72667 20.6918C19.6979 10.3814 32.3364 17.0333 35.6624 19.6941C23.689 17.6985 15.3741 21.0244 13.046 23.3526C25.7102 18.0513 36.288 22.6603 40.8535 25.6327C41.5113 26.061 42.4409 25.6645 42.5853 24.8929C45.4696 9.47894 60.7031 6.35423 63.2677 5.39252C53.6225 5.39252 45.6402 13.3748 45.3076 13.3748C44.975 13.3748 48.301 3.06436 57.281 1.40139C66.2611 -0.261581 75.5737 2.39917 75.9063 5.39252C76.2389 8.38587 71.9152 11.3792 65.5959 15.7029C58.355 19.5008 53.1493 19.3836 48.3635 17.9304C47.932 17.7994 47.4599 17.9538 47.2512 18.3535Z" fill="#4DFFAA"/>
<path d="M47.2512 18.3535C45.0912 22.4896 44.2323 32.1829 44.0203 37.8399C43.9895 38.6624 43.7928 39.3171 42.9697 39.3171C42.1348 39.3171 40.9864 38.6375 40.9654 37.8029C40.7789 30.4048 39.2151 27.2342 37.522 26.0035C37.2144 25.7798 36.7967 25.8301 36.4909 26.0562C24.4239 34.9751 14.9236 34.3055 6.39408 32.6652C-2.25337 31.0023 0.0747862 26.6785 6.72667 20.6918C19.6979 10.3814 32.3364 17.0333 35.6624 19.6941C23.689 17.6985 15.3741 21.0244 13.046 23.3526C25.7102 18.0513 36.288 22.6603 40.8535 25.6327C41.5113 26.061 42.4409 25.6645 42.5853 24.8929C45.4696 9.47894 60.7031 6.35423 63.2677 5.39252C53.6225 5.39252 45.6402 13.3748 45.3076 13.3748C44.975 13.3748 48.301 3.06436 57.281 1.40139C66.2611 -0.261581 75.5737 2.39917 75.9063 5.39252C76.2389 8.38587 71.9152 11.3792 65.5959 15.7029C58.355 19.5008 53.1493 19.3836 48.3635 17.9304C47.932 17.7994 47.4599 17.9538 47.2512 18.3535Z" fill="url(#paint4_linear_105_1831)" fill-opacity="0.5"/>
<path d="M47.2512 18.3535C45.0912 22.4896 44.2323 32.1829 44.0203 37.8399C43.9895 38.6624 43.7928 39.3171 42.9697 39.3171C42.1348 39.3171 40.9864 38.6375 40.9654 37.8029C40.7789 30.4048 39.2151 27.2342 37.522 26.0035C37.2144 25.7798 36.7967 25.8301 36.4909 26.0562C24.4239 34.9751 14.9236 34.3055 6.39408 32.6652C-2.25337 31.0023 0.0747862 26.6785 6.72667 20.6918C19.6979 10.3814 32.3364 17.0333 35.6624 19.6941C23.689 17.6985 15.3741 21.0244 13.046 23.3526C25.7102 18.0513 36.288 22.6603 40.8535 25.6327C41.5113 26.061 42.4409 25.6645 42.5853 24.8929C45.4696 9.47894 60.7031 6.35423 63.2677 5.39252C53.6225 5.39252 45.6402 13.3748 45.3076 13.3748C44.975 13.3748 48.301 3.06436 57.281 1.40139C66.2611 -0.261581 75.5737 2.39917 75.9063 5.39252C76.2389 8.38587 71.9152 11.3792 65.5959 15.7029C58.355 19.5008 53.1493 19.3836 48.3635 17.9304C47.932 17.7994 47.4599 17.9538 47.2512 18.3535Z" fill="url(#paint5_linear_105_1831)" fill-opacity="0.3"/>
<path d="M24.7845 15.5269C29.3566 16.1487 32.9867 18.0363 34.8931 19.3701C29.2292 18.5257 24.4109 18.8674 20.6932 19.7068C16.8093 20.5838 14.1066 22.0091 12.9045 23.2112L13.1232 23.5371C25.7041 18.2707 36.2105 22.8485 40.7444 25.8003C41.5213 26.3061 42.6112 25.8417 42.7818 24.9297C45.3594 11.1556 57.8743 7.28604 62.2272 5.94014C62.7027 5.79312 63.0808 5.67621 63.3379 5.57979L63.2677 5.19252C58.3921 5.19252 53.9478 7.20887 50.6906 9.21331C49.0603 10.2166 47.7233 11.2194 46.7737 11.9707C46.4191 12.2513 46.1176 12.4976 45.8763 12.6946C45.795 12.761 45.7205 12.8218 45.6532 12.8765C45.6199 12.9035 45.5885 12.9289 45.559 12.9526C45.6344 12.6787 45.7667 12.288 45.9605 11.8134C46.3611 10.8324 47.0198 9.5045 47.967 8.12489C49.863 5.36322 52.8994 2.41621 57.3174 1.59805C61.779 0.771827 66.324 1.02013 69.7901 1.8454C71.5238 2.25819 72.9782 2.81311 74.0147 3.44314C75.0621 4.07978 75.6351 4.76307 75.7075 5.41461C75.862 6.80462 74.9381 8.23984 73.111 9.90086C71.2961 11.5508 68.6522 13.3694 65.4926 15.5313C58.3038 19.2991 53.155 19.1763 48.4216 17.7391C47.9144 17.5851 47.3346 17.7617 47.0739 18.2609C45.9764 20.3625 45.2184 23.8508 44.7072 27.4986C44.1947 31.1545 43.9266 34.9991 43.8205 37.8324C43.8053 38.2379 43.749 38.5646 43.6195 38.7859C43.5571 38.8926 43.479 38.9724 43.3802 39.0268C43.2807 39.0817 43.1487 39.1171 42.9697 39.1171C42.5996 39.1171 42.1429 38.9638 41.7766 38.7088C41.4063 38.4512 41.1735 38.1234 41.1653 37.7979C40.9787 30.3929 39.4153 27.1325 37.6396 25.8417C37.2443 25.5543 36.7294 25.6311 36.372 25.8953C30.3621 30.3374 25.0004 32.3855 20.0863 33.1226C15.1699 33.8601 10.6886 33.2874 6.43185 32.4688C4.28087 32.0552 2.84442 31.4811 1.98928 30.78C1.56446 30.4318 1.28639 30.0549 1.13195 29.6528C0.977597 29.2509 0.942187 28.8119 1.02051 28.3322C1.17841 27.365 1.79668 26.2443 2.80857 24.9794C3.81635 23.7197 5.19834 22.3367 6.85591 20.8446C13.2933 15.7297 19.638 14.827 24.7845 15.5269Z" stroke="url(#paint6_linear_105_1831)" stroke-width="0.4"/>
<path d="M24.7845 15.5269C29.3566 16.1487 32.9867 18.0363 34.8931 19.3701C29.2292 18.5257 24.4109 18.8674 20.6932 19.7068C16.8093 20.5838 14.1066 22.0091 12.9045 23.2112L13.1232 23.5371C25.7041 18.2707 36.2105 22.8485 40.7444 25.8003C41.5213 26.3061 42.6112 25.8417 42.7818 24.9297C45.3594 11.1556 57.8743 7.28604 62.2272 5.94014C62.7027 5.79312 63.0808 5.67621 63.3379 5.57979L63.2677 5.19252C58.3921 5.19252 53.9478 7.20887 50.6906 9.21331C49.0603 10.2166 47.7233 11.2194 46.7737 11.9707C46.4191 12.2513 46.1176 12.4976 45.8763 12.6946C45.795 12.761 45.7205 12.8218 45.6532 12.8765C45.6199 12.9035 45.5885 12.9289 45.559 12.9526C45.6344 12.6787 45.7667 12.288 45.9605 11.8134C46.3611 10.8324 47.0198 9.5045 47.967 8.12489C49.863 5.36322 52.8994 2.41621 57.3174 1.59805C61.779 0.771827 66.324 1.02013 69.7901 1.8454C71.5238 2.25819 72.9782 2.81311 74.0147 3.44314C75.0621 4.07978 75.6351 4.76307 75.7075 5.41461C75.862 6.80462 74.9381 8.23984 73.111 9.90086C71.2961 11.5508 68.6522 13.3694 65.4926 15.5313C58.3038 19.2991 53.155 19.1763 48.4216 17.7391C47.9144 17.5851 47.3346 17.7617 47.0739 18.2609C45.9764 20.3625 45.2184 23.8508 44.7072 27.4986C44.1947 31.1545 43.9266 34.9991 43.8205 37.8324C43.8053 38.2379 43.749 38.5646 43.6195 38.7859C43.5571 38.8926 43.479 38.9724 43.3802 39.0268C43.2807 39.0817 43.1487 39.1171 42.9697 39.1171C42.5996 39.1171 42.1429 38.9638 41.7766 38.7088C41.4063 38.4512 41.1735 38.1234 41.1653 37.7979C40.9787 30.3929 39.4153 27.1325 37.6396 25.8417C37.2443 25.5543 36.7294 25.6311 36.372 25.8953C30.3621 30.3374 25.0004 32.3855 20.0863 33.1226C15.1699 33.8601 10.6886 33.2874 6.43185 32.4688C4.28087 32.0552 2.84442 31.4811 1.98928 30.78C1.56446 30.4318 1.28639 30.0549 1.13195 29.6528C0.977597 29.2509 0.942187 28.8119 1.02051 28.3322C1.17841 27.365 1.79668 26.2443 2.80857 24.9794C3.81635 23.7197 5.19834 22.3367 6.85591 20.8446C13.2933 15.7297 19.638 14.827 24.7845 15.5269Z" stroke="url(#paint7_linear_105_1831)" stroke-width="0.4"/>
</g>
<defs>
<filter id="filter0_d_105_1831" x="4.7627" y="39.4696" width="73.1885" height="27.3038" filterUnits="userSpaceOnUse" color-interpolation-filters="sRGB">
<feFlood flood-opacity="0" result="BackgroundImageFix"/>
<feColorMatrix in="SourceAlpha" type="matrix" values="0 0 0 0 0 0 0 0 0 0 0 0 0 0 0 0 0 0 127 0" result="hardAlpha"/>
<feOffset dy="10"/>
<feGaussianBlur stdDeviation="2"/>
<feComposite in2="hardAlpha" operator="out"/>
<feColorMatrix type="matrix" values="0 0 0 0 0 0 0 0 0 0.129167 0 0 0 0 0.0901476 0 0 0 0.2 0"/>
<feBlend mode="normal" in2="BackgroundImageFix" result="effect1_dropShadow_105_1831"/>
<feBlend mode="normal" in="SourceGraphic" in2="effect1_dropShadow_105_1831" result="shape"/>
</filter>
<filter id="filter1_ddi_105_1831" x="0.780273" y="0.888672" width="77.144" height="40.4285" filterUnits="userSpaceOnUse" color-interpolation-filters="sRGB">
<feFlood flood-opacity="0" result="BackgroundImageFix"/>
<feColorMatrix in="SourceAlpha" type="matrix" values="0 0 0 0 0 0 0 0 0 0 0 0 0 0 0 0 0 0 127 0" result="hardAlpha"/>
<feOffset dx="2" dy="2"/>
<feComposite in2="hardAlpha" operator="out"/>
<feColorMatrix type="matrix" values="0 0 0 0 0 0 0 0 0 0.208333 0 0 0 0 0.145399 0 0 0 1 0"/>
<feBlend mode="normal" in2="BackgroundImageFix" result="effect1_dropShadow_105_1831"/>
<feColorMatrix in="SourceAlpha" type="matrix" values="0 0 0 0 0 0 0 0 0 0 0 0 0 0 0 0 0 0 127 0" result="hardAlpha"/>
<feOffset dx="1" dy="1"/>
<feComposite in2="hardAlpha" operator="out"/>
<feColorMatrix type="matrix" values="0 0 0 0 0 0 0 0 0 0.3625 0 0 0 0 0.254335 0 0 0 1 0"/>
<feBlend mode="normal" in2="effect1_dropShadow_105_1831" result="effect2_dropShadow_105_1831"/>
<feBlend mode="normal" in="SourceGraphic" in2="effect2_dropShadow_105_1831" result="shape"/>
<feColorMatrix in="SourceAlpha" type="matrix" values="0 0 0 0 0 0 0 0 0 0 0 0 0 0 0 0 0 0 127 0" result="hardAlpha"/>
<feOffset dx="1" dy="1"/>
<feGaussianBlur stdDeviation="2"/>
<feComposite in2="hardAlpha" operator="arithmetic" k2="-1" k3="1"/>
<feColorMatrix type="matrix" values="0 0 0 0 0.183333 0 0 0 0 1 0 0 0 0 0.755 0 0 0 0.5 0"/>
<feBlend mode="normal" in2="shape" result="effect3_innerShadow_105_1831"/>
</filter>
<linearGradient id="paint0_linear_105_1831" x1="41.3569" y1="39.4696" x2="41.3569" y2="52.7734" gradientUnits="userSpaceOnUse">
<stop stop-color="#0F5641" stop-opacity="0.2"/>
<stop offset="1" stop-color="#22B085" stop-opacity="0.8"/>
</linearGradient>
<linearGradient id="paint1_linear_105_1831" x1="41.3569" y1="34.8134" x2="41.3569" y2="45.4564" gradientUnits="userSpaceOnUse">
<stop stop-color="#026C4C" stop-opacity="0.4"/>
<stop offset="1" stop-color="#22B085"/>
</linearGradient>
<linearGradient id="paint2_linear_105_1831" x1="41.3569" y1="34.8134" x2="41.3569" y2="45.4564" gradientUnits="userSpaceOnUse">
<stop stop-color="#0F5641" stop-opacity="0.13"/>
<stop offset="1" stop-color="#22B085" stop-opacity="0.5"/>
</linearGradient>
<linearGradient id="paint3_linear_105_1831" x1="41.3569" y1="37" x2="41.3569" y2="45.4564" gradientUnits="userSpaceOnUse">
<stop stop-color="#4DFFAA" stop-opacity="0"/>
<stop offset="1" stop-color="#4DFFAA"/>
</linearGradient>
<linearGradient id="paint4_linear_105_1831" x1="59.9821" y1="0.888672" x2="75.2814" y2="7.87315" gradientUnits="userSpaceOnUse">
<stop stop-color="white" stop-opacity="0"/>
<stop offset="1" stop-color="white"/>
</linearGradient>
<linearGradient id="paint5_linear_105_1831" x1="15.747" y1="15.8554" x2="4.43881" y2="31.8199" gradientUnits="userSpaceOnUse">
<stop stop-color="white" stop-opacity="0"/>
<stop offset="1" stop-color="white"/>
</linearGradient>
<linearGradient id="paint6_linear_105_1831" x1="1.77806" y1="30.157" x2="10.0929" y2="26.1658" gradientUnits="userSpaceOnUse">
<stop stop-color="white"/>
<stop offset="1" stop-color="white" stop-opacity="0"/>
</linearGradient>
<linearGradient id="paint7_linear_105_1831" x1="64.3058" y1="4.8798" x2="75.9466" y2="5.2124" gradientUnits="userSpaceOnUse">
<stop stop-color="white" stop-opacity="0"/>
<stop offset="1" stop-color="white"/>
</linearGradient>
</defs>
</svg>
