<svg width="35" height="36" viewBox="0 0 35 36" fill="none" xmlns="http://www.w3.org/2000/svg">
<path d="M28.8245 28.6069L28.024 28.7052V12.2373C28.024 11.5403 27.7543 10.9179 27.2655 10.4864C26.7767 10.0539 26.1262 9.86209 25.4352 9.94694L19.3947 10.6886V6.34161C19.3947 5.64454 19.125 5.02223 18.6362 4.59064C18.1475 4.15822 17.4969 3.96638 16.8059 4.05122L6.45073 5.32268C5.75972 5.40752 5.10915 5.75909 4.62039 6.31071C4.13162 6.86229 3.86196 7.55086 3.86196 8.24876V31.6719L2.93668 31.7855C2.45972 31.8441 2.07373 32.2803 2.07373 32.7609C2.07373 33.2415 2.45969 33.5829 2.93668 33.5244L28.8246 30.3457C29.3015 30.2872 29.6875 29.8509 29.6875 29.3704C29.6875 28.8898 29.3015 28.5483 28.8245 28.6069ZM10.7654 27.3967L7.31368 27.8206V24.3429L10.7654 23.9191V27.3967ZM10.7654 20.4415L7.31368 20.8653V17.3876L10.7654 16.9638V20.4415ZM10.7654 13.4862L7.31368 13.91V10.4324L10.7654 10.0085V13.4862ZM15.943 26.761L12.4913 27.1848V23.7072L15.943 23.2834V26.761ZM15.943 19.8057L12.4913 20.2296V16.7519L15.943 16.3281V19.8057ZM15.943 12.8505L12.4913 13.2743V9.79663L15.943 9.37281V12.8505ZM24.5723 25.7015L21.1206 26.1253V22.6477L24.5723 22.2238V25.7015ZM24.5723 18.7462L21.1206 19.17V15.6924L24.5723 15.2685V18.7462Z" fill="#02B780"/>
<path d="M28.8245 28.6069L28.024 28.7052V12.2373C28.024 11.5403 27.7543 10.9179 27.2655 10.4864C26.7767 10.0539 26.1262 9.86209 25.4352 9.94694L19.3947 10.6886V6.34161C19.3947 5.64454 19.125 5.02223 18.6362 4.59064C18.1475 4.15822 17.4969 3.96638 16.8059 4.05122L6.45073 5.32268C5.75972 5.40752 5.10915 5.75909 4.62039 6.31071C4.13162 6.86229 3.86196 7.55086 3.86196 8.24876V31.6719L2.93668 31.7855C2.45972 31.8441 2.07373 32.2803 2.07373 32.7609C2.07373 33.2415 2.45969 33.5829 2.93668 33.5244L28.8246 30.3457C29.3015 30.2872 29.6875 29.8509 29.6875 29.3704C29.6875 28.8898 29.3015 28.5483 28.8245 28.6069ZM10.7654 27.3967L7.31368 27.8206V24.3429L10.7654 23.9191V27.3967ZM10.7654 20.4415L7.31368 20.8653V17.3876L10.7654 16.9638V20.4415ZM10.7654 13.4862L7.31368 13.91V10.4324L10.7654 10.0085V13.4862ZM15.943 26.761L12.4913 27.1848V23.7072L15.943 23.2834V26.761ZM15.943 19.8057L12.4913 20.2296V16.7519L15.943 16.3281V19.8057ZM15.943 12.8505L12.4913 13.2743V9.79663L15.943 9.37281V12.8505ZM24.5723 25.7015L21.1206 26.1253V22.6477L24.5723 22.2238V25.7015ZM24.5723 18.7462L21.1206 19.17V15.6924L24.5723 15.2685V18.7462Z" fill="url(#paint0_linear_113_4234)" fill-opacity="0.2"/>
<g clip-path="url(#clip0_113_4234)">
<g filter="url(#filter0_di_113_4234)">
<path d="M31.8245 28.5068L31.024 28.6051V12.1372C31.024 11.4402 30.7543 10.8178 30.2655 10.3863C29.7767 9.95383 29.1262 9.76199 28.4352 9.84684L22.3947 10.5885V6.24151C22.3947 5.54445 22.125 4.92213 21.6362 4.49054C21.1475 4.05812 20.4969 3.86628 19.8059 3.95113L9.45073 5.22258C8.75972 5.30743 8.10915 5.659 7.62039 6.21061C7.13162 6.76219 6.86196 7.45076 6.86196 8.14866V31.5718L5.93668 31.6854C5.45972 31.744 5.07373 32.1802 5.07373 32.6608C5.07373 33.1414 5.45969 33.4828 5.93668 33.4243L31.8246 30.2456C32.3015 30.1871 32.6875 29.7508 32.6875 29.2703C32.6875 28.7897 32.3015 28.4482 31.8245 28.5068ZM13.7654 27.2967L10.3137 27.7205V24.2428L13.7654 23.819V27.2967ZM13.7654 20.3414L10.3137 20.7652V17.2875L13.7654 16.8637V20.3414ZM13.7654 13.3861L10.3137 13.8099V10.3323L13.7654 9.90844V13.3861ZM18.943 26.6609L15.4913 27.0847V23.6071L18.943 23.1833V26.6609ZM18.943 19.7056L15.4913 20.1295V16.6518L18.943 16.228V19.7056ZM18.943 12.7504L15.4913 13.1742V9.69653L18.943 9.27271V12.7504ZM27.5723 25.6014L24.1206 26.0252V22.5476L27.5723 22.1237V25.6014ZM27.5723 18.6461L24.1206 19.0699V15.5923L27.5723 15.1685V18.6461Z" fill="url(#paint1_linear_113_4234)"/>
<path d="M31.8245 28.5068L31.024 28.6051V12.1372C31.024 11.4402 30.7543 10.8178 30.2655 10.3863C29.7767 9.95383 29.1262 9.76199 28.4352 9.84684L22.3947 10.5885V6.24151C22.3947 5.54445 22.125 4.92213 21.6362 4.49054C21.1475 4.05812 20.4969 3.86628 19.8059 3.95113L9.45073 5.22258C8.75972 5.30743 8.10915 5.659 7.62039 6.21061C7.13162 6.76219 6.86196 7.45076 6.86196 8.14866V31.5718L5.93668 31.6854C5.45972 31.744 5.07373 32.1802 5.07373 32.6608C5.07373 33.1414 5.45969 33.4828 5.93668 33.4243L31.8246 30.2456C32.3015 30.1871 32.6875 29.7508 32.6875 29.2703C32.6875 28.7897 32.3015 28.4482 31.8245 28.5068ZM13.7654 27.2967L10.3137 27.7205V24.2428L13.7654 23.819V27.2967ZM13.7654 20.3414L10.3137 20.7652V17.2875L13.7654 16.8637V20.3414ZM13.7654 13.3861L10.3137 13.8099V10.3323L13.7654 9.90844V13.3861ZM18.943 26.6609L15.4913 27.0847V23.6071L18.943 23.1833V26.6609ZM18.943 19.7056L15.4913 20.1295V16.6518L18.943 16.228V19.7056ZM18.943 12.7504L15.4913 13.1742V9.69653L18.943 9.27271V12.7504ZM27.5723 25.6014L24.1206 26.0252V22.5476L27.5723 22.1237V25.6014ZM27.5723 18.6461L24.1206 19.0699V15.5923L27.5723 15.1685V18.6461Z" fill="url(#paint2_radial_113_4234)" fill-opacity="0.3"/>
<path d="M31.8245 28.5068L31.024 28.6051V12.1372C31.024 11.4402 30.7543 10.8178 30.2655 10.3863C29.7767 9.95383 29.1262 9.76199 28.4352 9.84684L22.3947 10.5885V6.24151C22.3947 5.54445 22.125 4.92213 21.6362 4.49054C21.1475 4.05812 20.4969 3.86628 19.8059 3.95113L9.45073 5.22258C8.75972 5.30743 8.10915 5.659 7.62039 6.21061C7.13162 6.76219 6.86196 7.45076 6.86196 8.14866V31.5718L5.93668 31.6854C5.45972 31.744 5.07373 32.1802 5.07373 32.6608C5.07373 33.1414 5.45969 33.4828 5.93668 33.4243L31.8246 30.2456C32.3015 30.1871 32.6875 29.7508 32.6875 29.2703C32.6875 28.7897 32.3015 28.4482 31.8245 28.5068ZM13.7654 27.2967L10.3137 27.7205V24.2428L13.7654 23.819V27.2967ZM13.7654 20.3414L10.3137 20.7652V17.2875L13.7654 16.8637V20.3414ZM13.7654 13.3861L10.3137 13.8099V10.3323L13.7654 9.90844V13.3861ZM18.943 26.6609L15.4913 27.0847V23.6071L18.943 23.1833V26.6609ZM18.943 19.7056L15.4913 20.1295V16.6518L18.943 16.228V19.7056ZM18.943 12.7504L15.4913 13.1742V9.69653L18.943 9.27271V12.7504ZM27.5723 25.6014L24.1206 26.0252V22.5476L27.5723 22.1237V25.6014ZM27.5723 18.6461L24.1206 19.0699V15.5923L27.5723 15.1685V18.6461Z" fill="url(#paint3_linear_113_4234)" fill-opacity="0.8"/>
<path d="M30.5277 28.666V29.166L31.024 29.1051L31.8245 29.0068C32.0275 28.9819 32.1913 29.1268 32.1913 29.3312C32.1913 29.5356 32.0275 29.7207 31.8246 29.7456L5.93668 32.9243C5.73377 32.9492 5.57 32.8043 5.57 32.5999C5.57 32.3955 5.73379 32.2103 5.93668 32.1854L6.86196 32.0718L7.35823 32.0109V31.5109V8.08772C7.35823 7.5223 7.57569 6.96754 7.971 6.52142L7.97101 6.52141C8.36688 6.07464 8.89141 5.79126 9.45073 5.72258L19.8059 4.45113C20.3652 4.38246 20.8895 4.53702 21.2853 4.88718L21.2856 4.88746C21.681 5.23658 21.8984 5.73795 21.8984 6.30244V10.6494V11.1494L22.3947 11.0885L28.4352 10.3468C28.9944 10.2782 29.5188 10.4327 29.9146 10.7829L29.9149 10.7832C30.3103 11.1323 30.5277 11.6337 30.5277 12.1982V28.666ZM13.7654 27.7967L14.2617 27.7357V27.2357V23.7581V23.2581L13.7654 23.319L10.3137 23.7428L9.81741 23.8038V24.3038V27.7814V28.2814L10.3137 28.2205L13.7654 27.7967ZM13.7654 20.8414L14.2617 20.7804V20.2804V16.8028V16.3028L13.7654 16.3637L10.3137 16.7875L9.81741 16.8485V17.3485V20.8261V21.3261L10.3137 21.2652L13.7654 20.8414ZM13.7654 13.8861L14.2617 13.8251V13.3251V9.8475V9.3475L13.7654 9.40844L10.3137 9.83226L9.81741 9.89319V10.3932V13.8708V14.3708L10.3137 14.3099L13.7654 13.8861ZM18.943 27.1609L19.4393 27.1V26.6V23.1223V22.6223L18.943 22.6833L15.4913 23.1071L14.995 23.168V23.668V27.1457V27.6457L15.4913 27.5847L18.943 27.1609ZM18.943 20.2056L19.4393 20.1447V19.6447V16.1671V15.6671L18.943 15.728L15.4913 16.1518L14.995 16.2127V16.7127V20.1904V20.6904L15.4913 20.6295L18.943 20.2056ZM18.943 13.2504L19.4393 13.1894V12.6894V9.21178V8.71178L18.943 8.77271L15.4913 9.19653L14.995 9.25746V9.75746V13.2351V13.7351L15.4913 13.6742L18.943 13.2504ZM27.5723 26.1014L28.0686 26.0404V25.5404V22.0628V21.5628L27.5723 21.6237L24.1206 22.0476L23.6243 22.1085V22.6085V26.0861V26.5861L24.1206 26.5252L27.5723 26.1014ZM27.5723 19.1461L28.0686 19.0852V18.5852V15.1075V14.6075L27.5723 14.6685L24.1206 15.0923L23.6243 15.1532V15.6532V19.1308V19.6308L24.1206 19.5699L27.5723 19.1461Z" stroke="url(#paint4_linear_113_4234)"/>
</g>
</g>
<defs>
<filter id="filter0_di_113_4234" x="3.07373" y="1.93152" width="31.6138" height="35.4993" filterUnits="userSpaceOnUse" color-interpolation-filters="sRGB">
<feFlood flood-opacity="0" result="BackgroundImageFix"/>
<feColorMatrix in="SourceAlpha" type="matrix" values="0 0 0 0 0 0 0 0 0 0 0 0 0 0 0 0 0 0 127 0" result="hardAlpha"/>
<feOffset/>
<feGaussianBlur stdDeviation="1"/>
<feComposite in2="hardAlpha" operator="out"/>
<feColorMatrix type="matrix" values="0 0 0 0 0.275 0 0 0 0 1 0 0 0 0 0.78071 0 0 0 1 0"/>
<feBlend mode="normal" in2="BackgroundImageFix" result="effect1_dropShadow_113_4234"/>
<feBlend mode="normal" in="SourceGraphic" in2="effect1_dropShadow_113_4234" result="shape"/>
<feColorMatrix in="SourceAlpha" type="matrix" values="0 0 0 0 0 0 0 0 0 0 0 0 0 0 0 0 0 0 127 0" result="hardAlpha"/>
<feOffset dy="4"/>
<feGaussianBlur stdDeviation="2"/>
<feComposite in2="hardAlpha" operator="arithmetic" k2="-1" k3="1"/>
<feColorMatrix type="matrix" values="0 0 0 0 1 0 0 0 0 1 0 0 0 0 1 0 0 0 0.1 0"/>
<feBlend mode="normal" in2="shape" result="effect2_innerShadow_113_4234"/>
</filter>
<linearGradient id="paint0_linear_113_4234" x1="13.4887" y1="13.5204" x2="9.81598" y2="10.0058" gradientUnits="userSpaceOnUse">
<stop stop-color="white" stop-opacity="0"/>
<stop offset="1" stop-color="white"/>
</linearGradient>
<linearGradient id="paint1_linear_113_4234" x1="11.1473" y1="7.48037" x2="25.6286" y2="29.3323" gradientUnits="userSpaceOnUse">
<stop stop-color="#29E2AA"/>
<stop offset="0.375" stop-color="#05F5AD"/>
<stop offset="1" stop-color="#37D9A8"/>
</linearGradient>
<radialGradient id="paint2_radial_113_4234" cx="0" cy="0" r="1" gradientUnits="userSpaceOnUse" gradientTransform="translate(19.8878 21.5795) rotate(-131.963) scale(13.0718 14.0585)">
<stop stop-color="white" stop-opacity="0"/>
<stop offset="1" stop-color="white"/>
</radialGradient>
<linearGradient id="paint3_linear_113_4234" x1="18.4311" y1="16.2212" x2="28.8618" y2="29.117" gradientUnits="userSpaceOnUse">
<stop stop-color="#37D9A8" stop-opacity="0"/>
<stop offset="1" stop-color="#009366"/>
</linearGradient>
<linearGradient id="paint4_linear_113_4234" x1="14.5464" y1="8.05607" x2="31.3603" y2="28.215" gradientUnits="userSpaceOnUse">
<stop stop-color="white"/>
<stop offset="1" stop-color="white" stop-opacity="0.51"/>
</linearGradient>
<clipPath id="clip0_113_4234">
<rect width="32" height="32" fill="white" transform="matrix(0.992546 -0.121869 0 1 3 3.89978)"/>
</clipPath>
</defs>
</svg>
